<?xml version="1.0" encoding="UTF-8"?>
<svg width="349px" height="375px" viewBox="0 0 349 375" version="1.1" xmlns="http://www.w3.org/2000/svg" xmlns:xlink="http://www.w3.org/1999/xlink">
    <title>logo-light</title>
    <g id="Page-1" stroke="none" stroke-width="1" fill="none" fill-rule="evenodd">
        <g id="Rocket" transform="translate(174.452109, 187.380402) scale(-1, 1) rotate(41.062863) translate(-174.452109, -187.380402) translate(114.452109, -8.070242)" fill-rule="nonzero">
            <g id="g3191" transform="translate(0.393409, 0.441447)" fill="#10E7FF" fill-opacity="0.97254902">
                <path d="M59.2203234,0.170140996 L59.2203234,1.40941138 C33.9188541,72.650862 28.0293365,122.125441 28.0293365,191.548896 C28.0293365,200.023677 28.234485,208.062503 28.6248301,215.658338 C-2.27641602,227.509677 -3.71820828,278.979532 4.48319937,315.669068 C11.6201298,301.252428 17.3591632,285.661708 41.1141004,285.170141 C43.4180437,290.884227 45.9638411,295.616002 48.6945724,299.36542 L56.6452161,299.36542 C55.7110135,281.238359 55.4381346,263.855901 55.4381346,249.504905 C55.6577397,235.569985 54.8275457,218.485121 59.4939285,218.780656 C64.593877,219.103647 63.5658169,235.865514 63.5658169,249.504905 C63.9206512,264.316711 63.6532727,281.508678 62.6323405,299.36542 L70.1806237,299.36542 C72.9100829,295.617047 75.4586357,290.88175 77.7610958,285.170141 C101.64229,285.598881 107.384877,301.222062 114.536847,315.669068 C122.752587,278.915386 121.292821,227.343161 90.2342716,215.610055 C90.6223403,208.03152 90.8297652,200.001676 90.8297652,191.548896 C90.8297652,122.125441 84.956342,72.650862 59.6548727,1.40941138 L59.6548727,0.170140996 C59.5807354,0.377782197 59.5033637,0.590553013 59.4295508,0.797823399 C59.3557431,0.590553013 59.2944659,0.377782197 59.2203234,0.170140996 Z M59.5100229,87.4501839 C66.0989757,87.4501839 71.4840761,92.7086869 71.645216,99.2956775 L71.645216,99.585377 C71.645216,106.289999 66.2146444,111.72057 59.5100229,111.72057 C52.8054015,111.72057 47.3748299,106.289999 47.3748299,99.585377 C47.3748299,92.8807556 52.8054015,87.4501839 59.5100229,87.4501839 Z" id="path2985"></path>
                <g id="g3080" transform="translate(56.272942, 223.059323)">
                    <path d="M3.28294529,0.178001231 C7.02949278,0.443819768 6.26749802,14.2480879 6.26749802,25.4734152 C6.70354683,45.8652473 5.87167863,71.7091997 3.28294529,96.495145 C0.83952978,71.6629803 0.298392554,45.1269075 0.298392554,25.4734152 C0.459722222,14.0048598 -0.145096473,-0.0652309843 3.28294529,0.178001231 Z" id="rect3052-0"></path>
                </g>
            </g>
            <g id="g3187" transform="translate(60.152369, 350.168655) scale(-1, 1) rotate(-180.000000) translate(-60.152369, -350.168655) translate(46.908478, 309.820984)" fill-opacity="0.97254902">
                <path d="M13.224642,0.115499057 L13.224642,0.269497799 C5.74289031,8.42518496 0.596745127,25.4033677 0.596745127,45.0446322 C0.596745127,55.3744674 2.02799589,72.3446977 4.46596353,80.3103442 C3.59317812,67.9125954 4.09431898,67.5360992 4.08096668,64.6987217 C3.68389817,51.9339446 7.16966894,33.2023383 13.4280023,28.2685697 C19.2896201,33.1152182 22.4696399,51.6323041 22.4645666,64.6987217 C22.3534965,68.8902471 22.4215824,68.6431777 22.1180694,80.3103442 C24.556143,72.3445683 25.9872878,55.3737036 25.9872878,45.0446322 C25.9872878,25.4048276 20.8402377,8.4258872 13.3593909,0.269497799 L13.3593909,0.115499057 C13.3352377,0.141370846 13.3064954,0.166441841 13.2823915,0.192498428 C13.2608564,0.169213818 13.2462142,0.138598868 13.224642,0.115499057 Z" id="path3084" fill="#FF6600"></path>
                <path d="M13.3180811,36.4743619 L13.3180811,36.5585438 C9.22841838,41.0165918 6.41543977,50.2971843 6.41543977,61.0334531 C6.41543977,66.679934 7.19778665,75.9561714 8.53042832,80.3103442 C8.05334761,73.5335063 8.32727503,73.3277024 8.3199761,71.7767441 C8.10293397,64.7992767 10.0083161,54.5602391 13.4292404,51.8633515 C16.6333081,54.5126165 18.371564,64.6343995 18.3687926,71.7767441 C18.3080493,74.0679066 18.3452677,73.9328559 18.1793914,80.3103442 C19.5120897,75.9561037 20.2943799,66.6795151 20.2943799,61.0334531 C20.2943799,50.297979 17.4809018,41.0169737 13.3917387,36.5585438 L13.3917387,36.4743619 C13.3785256,36.4885298 13.3628177,36.5022665 13.3496046,36.516496 C13.3378453,36.5037449 13.3298681,36.4869898 13.3180225,36.4743619 L13.3180811,36.4743619 Z" id="path3084-5" fill="#FFFF00"></path>
            </g>
            <path d="M28.1790335,219.217803 C-2.1683073,236.43171 3.00446009,289.135458 4.26731845,294.631658 C3.36607725,222.288196 34.4292927,221.39296 28.1790335,219.217803 Z" id="path3202" fill="#E6E6E6"></path>
            <path d="M59.8160652,11.0019811 C34.2281408,89.2028446 30.7750043,150.063234 32.225624,212.963969 C34.8623588,215.04359 38.9608429,214.703948 39.2152069,234.668446 L41.4224395,281.020378 C41.3282421,193.52606 34.6700549,121.863332 59.8160652,11.0019811 Z" id="path3984" fill="#FFFFFF"></path>
            <path d="M67.4168601,94.5869099 C67.3974438,101.876812 61.486012,107.776213 54.1915519,107.776213 C54.0112841,107.776213 53.8300223,107.771578 53.6515004,107.764213 C55.2183811,108.841313 57.1149528,109.480383 59.1600464,109.480383 C64.5382506,109.480383 68.9050043,105.113624 68.9050043,99.7354197 L68.8930043,99.4953991 C68.8488155,97.6886112 68.3121991,96.0181236 67.4168601,94.5869099 Z" id="path3986" fill-opacity="0.97254902" fill="#B3B3B3"></path>
            <path d="M59.8629373,215.275071 C53.0781682,215.229749 52.3460446,218.2411 52.0821064,229.299713 L53.3571399,259.250637 C52.9417957,224.894194 53.2293579,217.1729 59.8629373,215.275071 Z" id="path3984-5" fill="#FFFFFF"></path>
        </g>
    </g>
</svg>