<?xml version="1.0" encoding="UTF-8"?>
<svg width="1200px" height="785px" viewBox="0 0 1200 785" version="1.1" xmlns="http://www.w3.org/2000/svg" xmlns:xlink="http://www.w3.org/1999/xlink">
    <title>multi-reactors+thread-pool</title>
    <defs>
        <circle id="path-1" cx="30" cy="30" r="30"></circle>
        <filter x="-11.7%" y="-8.3%" width="123.3%" height="123.3%" filterUnits="objectBoundingBox" id="filter-2">
            <feOffset dx="0" dy="2" in="SourceAlpha" result="shadowOffsetOuter1"></feOffset>
            <feGaussianBlur stdDeviation="2" in="shadowOffsetOuter1" result="shadowBlurOuter1"></feGaussianBlur>
            <feColorMatrix values="0 0 0 0 0   0 0 0 0 0   0 0 0 0 0  0 0 0 0.5 0" type="matrix" in="shadowBlurOuter1"></feColorMatrix>
        </filter>
        <circle id="path-3" cx="30" cy="30" r="30"></circle>
        <filter x="-11.7%" y="-8.3%" width="123.3%" height="123.3%" filterUnits="objectBoundingBox" id="filter-4">
            <feOffset dx="0" dy="2" in="SourceAlpha" result="shadowOffsetOuter1"></feOffset>
            <feGaussianBlur stdDeviation="2" in="shadowOffsetOuter1" result="shadowBlurOuter1"></feGaussianBlur>
            <feColorMatrix values="0 0 0 0 0   0 0 0 0 0   0 0 0 0 0  0 0 0 0.5 0" type="matrix" in="shadowBlurOuter1"></feColorMatrix>
        </filter>
        <circle id="path-5" cx="30" cy="30" r="30"></circle>
        <filter x="-11.7%" y="-8.3%" width="123.3%" height="123.3%" filterUnits="objectBoundingBox" id="filter-6">
            <feOffset dx="0" dy="2" in="SourceAlpha" result="shadowOffsetOuter1"></feOffset>
            <feGaussianBlur stdDeviation="2" in="shadowOffsetOuter1" result="shadowBlurOuter1"></feGaussianBlur>
            <feColorMatrix values="0 0 0 0 0   0 0 0 0 0   0 0 0 0 0  0 0 0 0.5 0" type="matrix" in="shadowBlurOuter1"></feColorMatrix>
        </filter>
        <rect id="path-7" x="0" y="0" width="150" height="60" rx="8"></rect>
        <filter x="-4.7%" y="-8.3%" width="109.3%" height="123.3%" filterUnits="objectBoundingBox" id="filter-8">
            <feOffset dx="0" dy="2" in="SourceAlpha" result="shadowOffsetOuter1"></feOffset>
            <feGaussianBlur stdDeviation="2" in="shadowOffsetOuter1" result="shadowBlurOuter1"></feGaussianBlur>
            <feColorMatrix values="0 0 0 0 0   0 0 0 0 0   0 0 0 0 0  0 0 0 0.5 0" type="matrix" in="shadowBlurOuter1"></feColorMatrix>
        </filter>
        <rect id="path-9" x="0" y="0" width="170" height="60" rx="8"></rect>
        <filter x="-4.1%" y="-8.3%" width="108.2%" height="123.3%" filterUnits="objectBoundingBox" id="filter-10">
            <feOffset dx="0" dy="2" in="SourceAlpha" result="shadowOffsetOuter1"></feOffset>
            <feGaussianBlur stdDeviation="2" in="shadowOffsetOuter1" result="shadowBlurOuter1"></feGaussianBlur>
            <feColorMatrix values="0 0 0 0 0   0 0 0 0 0   0 0 0 0 0  0 0 0 0.5 0" type="matrix" in="shadowBlurOuter1"></feColorMatrix>
        </filter>
        <rect id="path-11" x="0" y="0" width="84" height="35" rx="8"></rect>
        <filter x="-8.3%" y="-14.3%" width="116.7%" height="140.0%" filterUnits="objectBoundingBox" id="filter-12">
            <feOffset dx="0" dy="2" in="SourceAlpha" result="shadowOffsetOuter1"></feOffset>
            <feGaussianBlur stdDeviation="2" in="shadowOffsetOuter1" result="shadowBlurOuter1"></feGaussianBlur>
            <feColorMatrix values="0 0 0 0 0   0 0 0 0 0   0 0 0 0 0  0 0 0 0.5 0" type="matrix" in="shadowBlurOuter1"></feColorMatrix>
        </filter>
        <rect id="path-13" x="0" y="0" width="84" height="35" rx="8"></rect>
        <filter x="-8.3%" y="-14.3%" width="116.7%" height="140.0%" filterUnits="objectBoundingBox" id="filter-14">
            <feOffset dx="0" dy="2" in="SourceAlpha" result="shadowOffsetOuter1"></feOffset>
            <feGaussianBlur stdDeviation="2" in="shadowOffsetOuter1" result="shadowBlurOuter1"></feGaussianBlur>
            <feColorMatrix values="0 0 0 0 0   0 0 0 0 0   0 0 0 0 0  0 0 0 0.5 0" type="matrix" in="shadowBlurOuter1"></feColorMatrix>
        </filter>
        <rect id="path-15" x="0" y="0" width="84" height="35" rx="8"></rect>
        <filter x="-8.3%" y="-14.3%" width="116.7%" height="140.0%" filterUnits="objectBoundingBox" id="filter-16">
            <feOffset dx="0" dy="2" in="SourceAlpha" result="shadowOffsetOuter1"></feOffset>
            <feGaussianBlur stdDeviation="2" in="shadowOffsetOuter1" result="shadowBlurOuter1"></feGaussianBlur>
            <feColorMatrix values="0 0 0 0 0   0 0 0 0 0   0 0 0 0 0  0 0 0 0.5 0" type="matrix" in="shadowBlurOuter1"></feColorMatrix>
        </filter>
        <rect id="path-17" x="0" y="0" width="84" height="35" rx="8"></rect>
        <filter x="-8.3%" y="-14.3%" width="116.7%" height="140.0%" filterUnits="objectBoundingBox" id="filter-18">
            <feOffset dx="0" dy="2" in="SourceAlpha" result="shadowOffsetOuter1"></feOffset>
            <feGaussianBlur stdDeviation="2" in="shadowOffsetOuter1" result="shadowBlurOuter1"></feGaussianBlur>
            <feColorMatrix values="0 0 0 0 0   0 0 0 0 0   0 0 0 0 0  0 0 0 0.5 0" type="matrix" in="shadowBlurOuter1"></feColorMatrix>
        </filter>
        <circle id="path-19" cx="50" cy="50" r="50"></circle>
        <filter x="-7.0%" y="-5.0%" width="114.0%" height="114.0%" filterUnits="objectBoundingBox" id="filter-20">
            <feOffset dx="0" dy="2" in="SourceAlpha" result="shadowOffsetOuter1"></feOffset>
            <feGaussianBlur stdDeviation="2" in="shadowOffsetOuter1" result="shadowBlurOuter1"></feGaussianBlur>
            <feColorMatrix values="0 0 0 0 0   0 0 0 0 0   0 0 0 0 0  0 0 0 0.5 0" type="matrix" in="shadowBlurOuter1"></feColorMatrix>
        </filter>
        <rect id="path-21" x="0" y="0" width="170" height="60" rx="8"></rect>
        <filter x="-4.1%" y="-8.3%" width="108.2%" height="123.3%" filterUnits="objectBoundingBox" id="filter-22">
            <feOffset dx="0" dy="2" in="SourceAlpha" result="shadowOffsetOuter1"></feOffset>
            <feGaussianBlur stdDeviation="2" in="shadowOffsetOuter1" result="shadowBlurOuter1"></feGaussianBlur>
            <feColorMatrix values="0 0 0 0 0   0 0 0 0 0   0 0 0 0 0  0 0 0 0.5 0" type="matrix" in="shadowBlurOuter1"></feColorMatrix>
        </filter>
        <circle id="path-23" cx="75" cy="75" r="75"></circle>
        <filter x="-4.7%" y="-3.3%" width="109.3%" height="109.3%" filterUnits="objectBoundingBox" id="filter-24">
            <feOffset dx="0" dy="2" in="SourceAlpha" result="shadowOffsetOuter1"></feOffset>
            <feGaussianBlur stdDeviation="2" in="shadowOffsetOuter1" result="shadowBlurOuter1"></feGaussianBlur>
            <feColorMatrix values="0 0 0 0 0   0 0 0 0 0   0 0 0 0 0  0 0 0 0.5 0" type="matrix" in="shadowBlurOuter1"></feColorMatrix>
        </filter>
        <rect id="path-25" x="0" y="0" width="84" height="35" rx="8"></rect>
        <filter x="-8.3%" y="-14.3%" width="116.7%" height="140.0%" filterUnits="objectBoundingBox" id="filter-26">
            <feOffset dx="0" dy="2" in="SourceAlpha" result="shadowOffsetOuter1"></feOffset>
            <feGaussianBlur stdDeviation="2" in="shadowOffsetOuter1" result="shadowBlurOuter1"></feGaussianBlur>
            <feColorMatrix values="0 0 0 0 0   0 0 0 0 0   0 0 0 0 0  0 0 0 0.5 0" type="matrix" in="shadowBlurOuter1"></feColorMatrix>
        </filter>
        <rect id="path-27" x="0" y="0" width="84" height="35" rx="8"></rect>
        <filter x="-8.3%" y="-14.3%" width="116.7%" height="140.0%" filterUnits="objectBoundingBox" id="filter-28">
            <feOffset dx="0" dy="2" in="SourceAlpha" result="shadowOffsetOuter1"></feOffset>
            <feGaussianBlur stdDeviation="2" in="shadowOffsetOuter1" result="shadowBlurOuter1"></feGaussianBlur>
            <feColorMatrix values="0 0 0 0 0   0 0 0 0 0   0 0 0 0 0  0 0 0 0.5 0" type="matrix" in="shadowBlurOuter1"></feColorMatrix>
        </filter>
        <rect id="path-29" x="0" y="0" width="84" height="35" rx="8"></rect>
        <filter x="-8.3%" y="-14.3%" width="116.7%" height="140.0%" filterUnits="objectBoundingBox" id="filter-30">
            <feOffset dx="0" dy="2" in="SourceAlpha" result="shadowOffsetOuter1"></feOffset>
            <feGaussianBlur stdDeviation="2" in="shadowOffsetOuter1" result="shadowBlurOuter1"></feGaussianBlur>
            <feColorMatrix values="0 0 0 0 0   0 0 0 0 0   0 0 0 0 0  0 0 0 0.5 0" type="matrix" in="shadowBlurOuter1"></feColorMatrix>
        </filter>
        <rect id="path-31" x="0" y="0" width="84" height="35" rx="8"></rect>
        <filter x="-8.3%" y="-14.3%" width="116.7%" height="140.0%" filterUnits="objectBoundingBox" id="filter-32">
            <feOffset dx="0" dy="2" in="SourceAlpha" result="shadowOffsetOuter1"></feOffset>
            <feGaussianBlur stdDeviation="2" in="shadowOffsetOuter1" result="shadowBlurOuter1"></feGaussianBlur>
            <feColorMatrix values="0 0 0 0 0   0 0 0 0 0   0 0 0 0 0  0 0 0 0.5 0" type="matrix" in="shadowBlurOuter1"></feColorMatrix>
        </filter>
        <rect id="path-33" x="0" y="0" width="84" height="35" rx="8"></rect>
        <filter x="-8.3%" y="-14.3%" width="116.7%" height="140.0%" filterUnits="objectBoundingBox" id="filter-34">
            <feOffset dx="0" dy="2" in="SourceAlpha" result="shadowOffsetOuter1"></feOffset>
            <feGaussianBlur stdDeviation="2" in="shadowOffsetOuter1" result="shadowBlurOuter1"></feGaussianBlur>
            <feColorMatrix values="0 0 0 0 0   0 0 0 0 0   0 0 0 0 0  0 0 0 0.5 0" type="matrix" in="shadowBlurOuter1"></feColorMatrix>
        </filter>
        <rect id="path-35" x="0" y="0" width="84" height="35" rx="8"></rect>
        <filter x="-8.3%" y="-14.3%" width="116.7%" height="140.0%" filterUnits="objectBoundingBox" id="filter-36">
            <feOffset dx="0" dy="2" in="SourceAlpha" result="shadowOffsetOuter1"></feOffset>
            <feGaussianBlur stdDeviation="2" in="shadowOffsetOuter1" result="shadowBlurOuter1"></feGaussianBlur>
            <feColorMatrix values="0 0 0 0 0   0 0 0 0 0   0 0 0 0 0  0 0 0 0.5 0" type="matrix" in="shadowBlurOuter1"></feColorMatrix>
        </filter>
    </defs>
    <g id="multi-reactors+thread-pool" stroke="none" stroke-width="1" fill="none" fill-rule="evenodd">
        <g id="Arrows" transform="translate(99.000000, 56.000000)" fill="#50616D" fill-rule="nonzero">
            <path id="Angled-Arrow" d="M202,552.5 L216,559.5 L202,566.5 L202,560.5 L185.75,560.5 C176.223088,560.5 168.5,568.223088 168.5,577.75 C168.5,588.267164 160.065829,596.814423 149.592245,596.997019 L149.25,597 L119,597 L119,595 L149.25,595 C158.776912,595 166.5,587.276912 166.5,577.75 C166.5,567.232836 174.934171,558.685577 185.407755,558.502981 L185.75,558.5 L202,558.5 L202,552.5 Z"></path>
            <path id="Angled-Arrow" d="M147.5,595 C158.980828,595 168.309836,604.21304 168.49713,615.649226 L168.5,616 L168.5,617.5 C168.5,627.880578 176.824636,636.316833 187.1622,636.497058 L187.5,636.5 L202,636.5 L202,630.5 L216,637.5 L202,644.5 L202,638.5 L187.5,638.5 C176.019172,638.5 166.690164,629.28696 166.50287,617.850774 L166.5,617.5 L166.5,616 C166.5,605.619422 158.175364,597.183167 147.8378,597.002942 L147.5,597 L119,597 L119,595 L147.5,595 Z"></path>
            <path id="Angled-Arrow" d="M565,184.5 L579,191.5 L565,198.5 L565,184.5 Z M553,190.5 L553,192.5 L548,192.5 L548,190.5 L553,190.5 Z M563,190.5 L563,192.5 L558,192.5 L558,190.5 L563,190.5 Z"></path>
            <path id="Angled-Arrow" d="M910,184.5 L924,191.5 L910,198.5 L910,184.5 Z M898,190.5 L898,192.5 L893,192.5 L893,190.5 L898,190.5 Z M908,190.5 L908,192.5 L903,192.5 L903,190.5 L908,190.5 Z"></path>
            <path id="Curved-Arrow" d="M565.041279,478.418044 L579,485.5 L564.959202,492.417803 L565.041279,478.418044 Z M562.96465,484.516709 L563.028651,486.515684 C561.073196,486.578292 559.798237,486.611175 558.347409,486.629622 L558.009091,486.63363 L557.987086,484.633751 C559.567178,484.616366 560.871607,484.583721 562.96465,484.516709 Z M548.032241,484.50052 C549.58229,484.550521 551.014298,484.586704 552.351786,484.610266 L553.012762,484.621 L552.98309,486.62078 C551.666242,486.601241 550.259046,486.569206 548.737923,486.523486 L547.967759,486.49948 L548.032241,484.50052 Z"></path>
            <path id="Curved-Arrow" d="M910.041279,478.418044 L924,485.5 L909.959202,492.417803 L910.041279,478.418044 Z M907.96465,484.516709 L908.028651,486.515684 C906.073196,486.578292 904.798237,486.611175 903.347409,486.629622 L903.009091,486.63363 L902.987086,484.633751 C904.567178,484.616366 905.871607,484.583721 907.96465,484.516709 Z M893.032241,484.50052 C894.58229,484.550521 896.014298,484.586704 897.351786,484.610266 L898.012762,484.621 L897.98309,486.62078 C896.666242,486.601241 895.259046,486.569206 893.737923,486.523486 L892.967759,486.49948 L893.032241,484.50052 Z"></path>
            <path id="Angled-Arrow" d="M39.5,-1 C50.9808284,-1 60.3098361,8.21303974 60.4971296,19.6492257 L60.5,20 L60.5,87 C60.5,97.3805779 68.8246359,105.816833 79.1622002,105.997058 L79.5,106 L105,106 L105,100 L119,107 L105,114 L105,108 L79.5,108 C68.0191716,108 58.6901639,98.7869603 58.5028704,87.3507743 L58.5,87 L58.5,20 C58.5,9.61942212 50.1753641,1.18316713 39.8377998,1.0029425 L39.5,1 L0,1 L0,-1 L39.5,-1 Z"></path>
            <path id="Angled-Arrow" d="M105,100 L119,107 L105,114 L105,108 L0,108 L0,106 L105,106 L105,100 Z"></path>
            <path id="Angled-Arrow" d="M105,100 L119,107 L105,114 L105,108 L79.5,108 C69.1194221,108 60.6831671,116.324636 60.5029425,126.6622 L60.5,127 L60.5,194 C60.5,205.480828 51.2869603,214.809836 39.8507743,214.99713 L39.5,215 L0,215 L0,213 L39.5,213 C49.8805779,213 58.3168329,204.675364 58.4970575,194.3378 L58.5,194 L58.5,127 C58.5,115.519172 67.7130397,106.190164 79.1492257,106.00287 L79.5,106 L105,106 L105,100 Z"></path>
            <path id="Curved-Arrow" d="M194.999904,136.986112 C195.20838,151.996451 195.187523,159.505324 194.999904,173.013888 C194.869666,182.390961 194.830664,187.298816 194.866034,194.989856 L200.860658,194.931192 L194,209 L186.861348,195.070188 L192.866098,195.008405 C192.830585,187.297266 192.869648,182.37842 193.000096,172.986112 C193.183404,159.787968 193.207303,152.332086 193.01335,137.980982 L193.000096,137.013888 L194.999904,136.986112 Z"></path>
            <path id="Curved-Arrow" d="M637.888101,100.22842 L652,107 L638.115596,114.226571 L638.018,108.246 L637.682902,108.258209 C595.049241,109.818818 559.694447,118.33522 527.191713,133.534034 C513.322098,140.019695 499.990208,147.68782 485.844272,157.087331 C475.117943,164.214626 466.879723,170.17982 448.597481,183.801883 C429.456884,198.063505 420.813276,204.305676 409.502476,211.741842 C394.558498,221.566602 380.384902,229.523308 365.533131,236.162924 C330.692711,251.73864 292.272812,259.837157 245.422298,259.997569 L244,260 L244,258 C291.217998,258 329.784212,249.954029 364.716869,234.337076 C379.463312,227.744549 393.544627,219.839648 408.403774,210.070658 C419.671099,202.663074 428.293116,196.436495 447.402519,182.198117 C465.713378,168.554732 473.971339,162.575244 484.73741,155.421542 C498.961443,145.970137 512.378062,138.253278 526.344529,131.722328 C559.18644,116.364909 594.917058,107.779836 637.986425,106.245946 L637.888101,100.22842 Z"></path>
            <path id="Curved-Arrow" d="M244,258 C291.48769,258 330.324086,265.56929 365.510386,280.264745 C380.360605,286.466895 394.533216,293.899617 409.476482,303.077574 C420.787141,310.024432 429.430754,315.855938 448.5713,329.179259 C485.112168,354.614569 502.265387,365.262485 527.16786,376.141254 C559.668099,390.339145 595.020924,398.296563 637.648776,399.757652 L638.016,399.769 L638.107895,393.788244 L652,401 L637.895332,407.78663 L637.986,401.769 L637.578925,401.756431 C594.70051,400.286587 559.09965,392.27333 526.367215,377.974003 C501.307933,367.026731 484.07356,356.328438 447.4287,330.820741 C428.319246,317.519062 419.697234,311.702131 408.429768,304.781801 C393.569909,295.655071 379.487609,288.269712 364.739614,282.110255 C330.150301,267.664131 291.997719,260.151072 245.414207,260.002255 L244,260 L244,258 Z"></path>
        </g>
        <g id="Client1" transform="translate(39.000000, 26.000000)">
            <g id="Oval">
                <use fill="black" fill-opacity="1" filter="url(#filter-2)" xlink:href="#path-1"></use>
                <use fill="#FFA69E" fill-rule="evenodd" xlink:href="#path-1"></use>
            </g>
            <text id="Client" font-family="MarkerFelt-Wide, Marker Felt" font-size="16" font-weight="bold" fill="#FFFFFF">
                <tspan x="10.684" y="35.5">Client</tspan>
            </text>
        </g>
        <g id="Client2" transform="translate(39.000000, 133.000000)">
            <g id="Oval">
                <use fill="black" fill-opacity="1" filter="url(#filter-4)" xlink:href="#path-3"></use>
                <use fill="#FFA69E" fill-rule="evenodd" xlink:href="#path-3"></use>
            </g>
            <text id="Client" font-family="MarkerFelt-Wide, Marker Felt" font-size="16" font-weight="bold" fill="#FFFFFF">
                <tspan x="10.684" y="37">Client</tspan>
            </text>
        </g>
        <g id="Client3" transform="translate(39.000000, 240.000000)">
            <g id="Oval">
                <use fill="black" fill-opacity="1" filter="url(#filter-6)" xlink:href="#path-5"></use>
                <use fill="#FFA69E" fill-rule="evenodd" xlink:href="#path-5"></use>
            </g>
            <text id="Client" font-family="MarkerFelt-Wide, Marker Felt" font-size="16" font-weight="bold" fill="#FFFFFF">
                <tspan x="10.684" y="36">Client</tspan>
            </text>
        </g>
        <g id="MainReactor" transform="translate(218.000000, 133.000000)">
            <g id="Rectangle">
                <use fill="black" fill-opacity="1" filter="url(#filter-8)" xlink:href="#path-7"></use>
                <use fill="#549688" fill-rule="evenodd" xlink:href="#path-7"></use>
            </g>
            <text id="Main-Reactor" font-family="MarkerFelt-Wide, Marker Felt" font-size="18" font-weight="bold" fill="#FFFFFF">
                <tspan x="20.847" y="36">Main Reactor</tspan>
            </text>
        </g>
        <g id="SubReactor" transform="translate(751.000000, 133.000000)">
            <g id="Rectangle">
                <use fill="black" fill-opacity="1" filter="url(#filter-10)" xlink:href="#path-9"></use>
                <use fill="#177CB0" fill-rule="evenodd" xlink:href="#path-9"></use>
            </g>
            <text id="Sub-Reactor" font-family="MarkerFelt-Wide, Marker Felt" font-size="18" font-weight="bold" fill="#FFFFFF">
                <tspan x="38.872" y="37">Sub Reactor</tspan>
            </text>
        </g>
        <g id="Read1" transform="translate(563.000000, 230.000000)">
            <g id="Rectangle">
                <use fill="black" fill-opacity="1" filter="url(#filter-12)" xlink:href="#path-11"></use>
                <use fill="#FFC43D" fill-rule="evenodd" xlink:href="#path-11"></use>
            </g>
            <text id="Read" font-family="MarkerFelt-Wide, Marker Felt" font-size="16" font-weight="bold" fill="#FFFFFF">
                <tspan x="25.028" y="23">Read</tspan>
            </text>
        </g>
        <g id="Decode1" transform="translate(678.000000, 230.000000)">
            <g id="Rectangle">
                <use fill="black" fill-opacity="1" filter="url(#filter-14)" xlink:href="#path-13"></use>
                <use fill="#FFC43D" fill-rule="evenodd" xlink:href="#path-13"></use>
            </g>
            <text id="Decode" font-family="MarkerFelt-Wide, Marker Felt" font-size="16" font-weight="bold" fill="#FFFFFF">
                <tspan x="17.648" y="23">Decode</tspan>
            </text>
        </g>
        <g id="Compute1" transform="translate(348.000000, 598.000000)">
            <g id="Rectangle">
                <use fill="black" fill-opacity="1" filter="url(#filter-16)" xlink:href="#path-15"></use>
                <use fill="#FFC43D" fill-rule="evenodd" xlink:href="#path-15"></use>
            </g>
            <text id="Compute" font-family="MarkerFelt-Wide, Marker Felt" font-size="16" font-weight="bold" fill="#FFFFFF">
                <tspan x="11.032" y="23">Compute</tspan>
            </text>
        </g>
        <g id="Encode1" transform="translate(908.000000, 230.000000)">
            <g id="Rectangle">
                <use fill="black" fill-opacity="1" filter="url(#filter-18)" xlink:href="#path-17"></use>
                <use fill="#FFC43D" fill-rule="evenodd" xlink:href="#path-17"></use>
            </g>
            <text id="Encode" font-family="MarkerFelt-Wide, Marker Felt" font-size="16" font-weight="bold" fill="#FFFFFF">
                <tspan x="17.932" y="23">Encode</tspan>
            </text>
        </g>
        <g id="Acceptor" transform="translate(243.000000, 265.000000)">
            <g id="Oval">
                <use fill="black" fill-opacity="1" filter="url(#filter-20)" xlink:href="#path-19"></use>
                <use fill="#5E6472" fill-rule="evenodd" xlink:href="#path-19"></use>
            </g>
            <text font-family="MarkerFelt-Wide, Marker Felt" font-size="18" font-weight="bold" fill="#FFFFFF">
                <tspan x="14.126" y="56">Acceptor</tspan>
            </text>
        </g>
        <path id="Path-2" d="M544.5,237.5 L563.5,247 L544.5,256.5 L544.5,248.5 L543,248.5 L543,245.5 L544.5,245.5 L544.5,237.5 Z M538,245.5 L538,248.5 L533,248.5 L533,245.5 L538,245.5 Z M530.5,241 L530.5,246 L527.5,246 L527.5,241 L530.5,241 Z M530.5,231 L530.5,236 L527.5,236 L527.5,231 L530.5,231 Z M530.5,221 L530.5,226 L527.5,226 L527.5,221 L530.5,221 Z M530.5,211 L530.5,216 L527.5,216 L527.5,211 L530.5,211 Z M530.5,201 L530.5,206 L527.5,206 L527.5,201 L530.5,201 Z M530.5,191 L530.5,196 L527.5,196 L527.5,191 L530.5,191 Z M530.5,181 L530.5,186 L527.5,186 L527.5,181 L530.5,181 Z M530.5,171 L530.5,176 L527.5,176 L527.5,171 L530.5,171 Z M531,161.5 L531,164.5 L530.5,164.5 L530.5,166 L527.5,166 L527.5,161.5 L531,161.5 Z M641,161.5 L641,164.5 L636,164.5 L636,161.5 L641,161.5 Z M631,161.5 L631,164.5 L626,164.5 L626,161.5 L631,161.5 Z M621,161.5 L621,164.5 L616,164.5 L616,161.5 L621,161.5 Z M611,161.5 L611,164.5 L606,164.5 L606,161.5 L611,161.5 Z M601,161.5 L601,164.5 L596,164.5 L596,161.5 L601,161.5 Z M591,161.5 L591,164.5 L586,164.5 L586,161.5 L591,161.5 Z M751,161.5 L751,164.5 L746,164.5 L746,161.5 L751,161.5 Z M571,161.5 L571,164.5 L566,164.5 L566,161.5 L571,161.5 Z M561,161.5 L561,164.5 L556,164.5 L556,161.5 L561,161.5 Z M551,161.5 L551,164.5 L546,164.5 L546,161.5 L551,161.5 Z M541,161.5 L541,164.5 L536,164.5 L536,161.5 L541,161.5 Z M651,161.5 L651,164.5 L646,164.5 L646,161.5 L651,161.5 Z M661,161.5 L661,164.5 L656,164.5 L656,161.5 L661,161.5 Z M671,161.5 L671,164.5 L666,164.5 L666,161.5 L671,161.5 Z M681,161.5 L681,164.5 L676,164.5 L676,161.5 L681,161.5 Z M691,161.5 L691,164.5 L686,164.5 L686,161.5 L691,161.5 Z M701,161.5 L701,164.5 L696,164.5 L696,161.5 L701,161.5 Z M711,161.5 L711,164.5 L706,164.5 L706,161.5 L711,161.5 Z M721,161.5 L721,164.5 L716,164.5 L716,161.5 L721,161.5 Z M731,161.5 L731,164.5 L726,164.5 L726,161.5 L731,161.5 Z M741,161.5 L741,164.5 L736,164.5 L736,161.5 L741,161.5 Z M581,161.5 L581,164.5 L576,164.5 L576,161.5 L581,161.5 Z" fill="#50616D" fill-rule="nonzero"></path>
        <path id="Path-3" d="M1113.01616,245.5 L1113.01616,248.5 L1108.01616,248.5 L1108.01616,245.5 L1113.01616,245.5 Z M1123.01616,245.5 L1123.01616,248.5 L1118.01616,248.5 L1118.01616,245.5 L1123.01616,245.5 Z M1133.01616,245.5 L1133.01616,248.5 L1128.01616,248.5 L1128.01616,245.5 L1133.01616,245.5 Z M1143.01616,245.5 L1143.01616,248.5 L1138.01616,248.5 L1138.01616,245.5 L1143.01616,245.5 Z M1148.5,240.983838 L1148.5,245.983838 L1145.5,245.983838 L1145.5,240.983838 L1148.5,240.983838 Z M1148.5,230.983838 L1148.5,235.983838 L1145.5,235.983838 L1145.5,230.983838 L1148.5,230.983838 Z M1148.5,220.983838 L1148.5,225.983838 L1145.5,225.983838 L1145.5,220.983838 L1148.5,220.983838 Z M1148.5,210.983838 L1148.5,215.983838 L1145.5,215.983838 L1145.5,210.983838 L1148.5,210.983838 Z M1148.5,200.983838 L1148.5,205.983838 L1145.5,205.983838 L1145.5,200.983838 L1148.5,200.983838 Z M1148.5,190.983838 L1148.5,195.983838 L1145.5,195.983838 L1145.5,190.983838 L1148.5,190.983838 Z M1148.5,180.983838 L1148.5,185.983838 L1145.5,185.983838 L1145.5,180.983838 L1148.5,180.983838 Z M1148.5,170.983838 L1148.5,175.983838 L1145.5,175.983838 L1145.5,170.983838 L1148.5,170.983838 Z M939.5,153.5 L939.5,161.5 L939.983838,161.5 L939.983838,164.5 L939.5,164.5 L939.5,172.5 L920.5,163 L939.5,153.5 Z M1148.5,161.5 L1148.5,165.983838 L1145.5,165.983838 L1145.5,164.5 L1144.98384,164.5 L1144.98384,161.5 L1148.5,161.5 Z M1139.98384,161.5 L1139.98384,164.5 L1134.98384,164.5 L1134.98384,161.5 L1139.98384,161.5 Z M1129.98384,161.5 L1129.98384,164.5 L1124.98384,164.5 L1124.98384,161.5 L1129.98384,161.5 Z M1119.98384,161.5 L1119.98384,164.5 L1114.98384,164.5 L1114.98384,161.5 L1119.98384,161.5 Z M1109.98384,161.5 L1109.98384,164.5 L1104.98384,164.5 L1104.98384,161.5 L1109.98384,161.5 Z M1099.98384,161.5 L1099.98384,164.5 L1094.98384,164.5 L1094.98384,161.5 L1099.98384,161.5 Z M1089.98384,161.5 L1089.98384,164.5 L1084.98384,164.5 L1084.98384,161.5 L1089.98384,161.5 Z M1079.98384,161.5 L1079.98384,164.5 L1074.98384,164.5 L1074.98384,161.5 L1079.98384,161.5 Z M1069.98384,161.5 L1069.98384,164.5 L1064.98384,164.5 L1064.98384,161.5 L1069.98384,161.5 Z M1059.98384,161.5 L1059.98384,164.5 L1054.98384,164.5 L1054.98384,161.5 L1059.98384,161.5 Z M1049.98384,161.5 L1049.98384,164.5 L1044.98384,164.5 L1044.98384,161.5 L1049.98384,161.5 Z M1039.98384,161.5 L1039.98384,164.5 L1034.98384,164.5 L1034.98384,161.5 L1039.98384,161.5 Z M1029.98384,161.5 L1029.98384,164.5 L1024.98384,164.5 L1024.98384,161.5 L1029.98384,161.5 Z M1019.98384,161.5 L1019.98384,164.5 L1014.98384,164.5 L1014.98384,161.5 L1019.98384,161.5 Z M1009.98384,161.5 L1009.98384,164.5 L1004.98384,164.5 L1004.98384,161.5 L1009.98384,161.5 Z M999.983838,161.5 L999.983838,164.5 L994.983838,164.5 L994.983838,161.5 L999.983838,161.5 Z M989.983838,161.5 L989.983838,164.5 L984.983838,164.5 L984.983838,161.5 L989.983838,161.5 Z M979.983838,161.5 L979.983838,164.5 L974.983838,164.5 L974.983838,161.5 L979.983838,161.5 Z M969.983838,161.5 L969.983838,164.5 L964.983838,164.5 L964.983838,161.5 L969.983838,161.5 Z M959.983838,161.5 L959.983838,164.5 L954.983838,164.5 L954.983838,161.5 L959.983838,161.5 Z M949.983838,161.5 L949.983838,164.5 L944.983838,164.5 L944.983838,161.5 L949.983838,161.5 Z" fill="#50616D" fill-rule="nonzero"></path>
        <g id="SubReactor" transform="translate(751.000000, 427.000000)">
            <g id="Rectangle">
                <use fill="black" fill-opacity="1" filter="url(#filter-22)" xlink:href="#path-21"></use>
                <use fill="#177CB0" fill-rule="evenodd" xlink:href="#path-21"></use>
            </g>
            <text id="Sub-Reactor" font-family="MarkerFelt-Wide, Marker Felt" font-size="18" font-weight="bold" fill="#FFFFFF">
                <tspan x="38.872" y="37">Sub Reactor</tspan>
            </text>
        </g>
        <path id="Path-2" d="M544.5,531.5 L563.5,541 L544.5,550.5 L544.5,542.5 L543,542.5 L543,539.5 L544.5,539.5 L544.5,531.5 Z M538,539.5 L538,542.5 L533,542.5 L533,539.5 L538,539.5 Z M530.5,535 L530.5,540 L527.5,540 L527.5,535 L530.5,535 Z M530.5,525 L530.5,530 L527.5,530 L527.5,525 L530.5,525 Z M530.5,515 L530.5,520 L527.5,520 L527.5,515 L530.5,515 Z M530.5,505 L530.5,510 L527.5,510 L527.5,505 L530.5,505 Z M530.5,495 L530.5,500 L527.5,500 L527.5,495 L530.5,495 Z M530.5,485 L530.5,490 L527.5,490 L527.5,485 L530.5,485 Z M530.5,475 L530.5,480 L527.5,480 L527.5,475 L530.5,475 Z M530.5,465 L530.5,470 L527.5,470 L527.5,465 L530.5,465 Z M531,455.5 L531,458.5 L530.5,458.5 L530.5,460 L527.5,460 L527.5,455.5 L531,455.5 Z M641,455.5 L641,458.5 L636,458.5 L636,455.5 L641,455.5 Z M631,455.5 L631,458.5 L626,458.5 L626,455.5 L631,455.5 Z M621,455.5 L621,458.5 L616,458.5 L616,455.5 L621,455.5 Z M611,455.5 L611,458.5 L606,458.5 L606,455.5 L611,455.5 Z M601,455.5 L601,458.5 L596,458.5 L596,455.5 L601,455.5 Z M591,455.5 L591,458.5 L586,458.5 L586,455.5 L591,455.5 Z M751,455.5 L751,458.5 L746,458.5 L746,455.5 L751,455.5 Z M571,455.5 L571,458.5 L566,458.5 L566,455.5 L571,455.5 Z M561,455.5 L561,458.5 L556,458.5 L556,455.5 L561,455.5 Z M551,455.5 L551,458.5 L546,458.5 L546,455.5 L551,455.5 Z M541,455.5 L541,458.5 L536,458.5 L536,455.5 L541,455.5 Z M651,455.5 L651,458.5 L646,458.5 L646,455.5 L651,455.5 Z M661,455.5 L661,458.5 L656,458.5 L656,455.5 L661,455.5 Z M671,455.5 L671,458.5 L666,458.5 L666,455.5 L671,455.5 Z M681,455.5 L681,458.5 L676,458.5 L676,455.5 L681,455.5 Z M691,455.5 L691,458.5 L686,458.5 L686,455.5 L691,455.5 Z M701,455.5 L701,458.5 L696,458.5 L696,455.5 L701,455.5 Z M711,455.5 L711,458.5 L706,458.5 L706,455.5 L711,455.5 Z M721,455.5 L721,458.5 L716,458.5 L716,455.5 L721,455.5 Z M731,455.5 L731,458.5 L726,458.5 L726,455.5 L731,455.5 Z M741,455.5 L741,458.5 L736,458.5 L736,455.5 L741,455.5 Z M581,455.5 L581,458.5 L576,458.5 L576,455.5 L581,455.5 Z" fill="#50616D" fill-rule="nonzero"></path>
        <path id="Path-3" d="M1113.01616,539.5 L1113.01616,542.5 L1108.01616,542.5 L1108.01616,539.5 L1113.01616,539.5 Z M1123.01616,539.5 L1123.01616,542.5 L1118.01616,542.5 L1118.01616,539.5 L1123.01616,539.5 Z M1133.01616,539.5 L1133.01616,542.5 L1128.01616,542.5 L1128.01616,539.5 L1133.01616,539.5 Z M1143.01616,539.5 L1143.01616,542.5 L1138.01616,542.5 L1138.01616,539.5 L1143.01616,539.5 Z M1148.5,534.983838 L1148.5,539.983838 L1145.5,539.983838 L1145.5,534.983838 L1148.5,534.983838 Z M1148.5,524.983838 L1148.5,529.983838 L1145.5,529.983838 L1145.5,524.983838 L1148.5,524.983838 Z M1148.5,514.983838 L1148.5,519.983838 L1145.5,519.983838 L1145.5,514.983838 L1148.5,514.983838 Z M1148.5,504.983838 L1148.5,509.983838 L1145.5,509.983838 L1145.5,504.983838 L1148.5,504.983838 Z M1148.5,494.983838 L1148.5,499.983838 L1145.5,499.983838 L1145.5,494.983838 L1148.5,494.983838 Z M1148.5,484.983838 L1148.5,489.983838 L1145.5,489.983838 L1145.5,484.983838 L1148.5,484.983838 Z M1148.5,474.983838 L1148.5,479.983838 L1145.5,479.983838 L1145.5,474.983838 L1148.5,474.983838 Z M1148.5,464.983838 L1148.5,469.983838 L1145.5,469.983838 L1145.5,464.983838 L1148.5,464.983838 Z M939.5,447.5 L939.5,455.5 L939.983838,455.5 L939.983838,458.5 L939.5,458.5 L939.5,466.5 L920.5,457 L939.5,447.5 Z M1148.5,455.5 L1148.5,459.983838 L1145.5,459.983838 L1145.5,458.5 L1144.98384,458.5 L1144.98384,455.5 L1148.5,455.5 Z M1139.98384,455.5 L1139.98384,458.5 L1134.98384,458.5 L1134.98384,455.5 L1139.98384,455.5 Z M1129.98384,455.5 L1129.98384,458.5 L1124.98384,458.5 L1124.98384,455.5 L1129.98384,455.5 Z M1119.98384,455.5 L1119.98384,458.5 L1114.98384,458.5 L1114.98384,455.5 L1119.98384,455.5 Z M1109.98384,455.5 L1109.98384,458.5 L1104.98384,458.5 L1104.98384,455.5 L1109.98384,455.5 Z M1099.98384,455.5 L1099.98384,458.5 L1094.98384,458.5 L1094.98384,455.5 L1099.98384,455.5 Z M1089.98384,455.5 L1089.98384,458.5 L1084.98384,458.5 L1084.98384,455.5 L1089.98384,455.5 Z M1079.98384,455.5 L1079.98384,458.5 L1074.98384,458.5 L1074.98384,455.5 L1079.98384,455.5 Z M1069.98384,455.5 L1069.98384,458.5 L1064.98384,458.5 L1064.98384,455.5 L1069.98384,455.5 Z M1059.98384,455.5 L1059.98384,458.5 L1054.98384,458.5 L1054.98384,455.5 L1059.98384,455.5 Z M1049.98384,455.5 L1049.98384,458.5 L1044.98384,458.5 L1044.98384,455.5 L1049.98384,455.5 Z M1039.98384,455.5 L1039.98384,458.5 L1034.98384,458.5 L1034.98384,455.5 L1039.98384,455.5 Z M1029.98384,455.5 L1029.98384,458.5 L1024.98384,458.5 L1024.98384,455.5 L1029.98384,455.5 Z M1019.98384,455.5 L1019.98384,458.5 L1014.98384,458.5 L1014.98384,455.5 L1019.98384,455.5 Z M1009.98384,455.5 L1009.98384,458.5 L1004.98384,458.5 L1004.98384,455.5 L1009.98384,455.5 Z M999.983838,455.5 L999.983838,458.5 L994.983838,458.5 L994.983838,455.5 L999.983838,455.5 Z M989.983838,455.5 L989.983838,458.5 L984.983838,458.5 L984.983838,455.5 L989.983838,455.5 Z M979.983838,455.5 L979.983838,458.5 L974.983838,458.5 L974.983838,455.5 L979.983838,455.5 Z M969.983838,455.5 L969.983838,458.5 L964.983838,458.5 L964.983838,455.5 L969.983838,455.5 Z M959.983838,455.5 L959.983838,458.5 L954.983838,458.5 L954.983838,455.5 L959.983838,455.5 Z M949.983838,455.5 L949.983838,458.5 L944.983838,458.5 L944.983838,455.5 L949.983838,455.5 Z" fill="#50616D" fill-rule="nonzero"></path>
        <g id="GoroutinePool" transform="translate(68.000000, 577.000000)">
            <g id="Oval">
                <use fill="black" fill-opacity="1" filter="url(#filter-24)" xlink:href="#path-23"></use>
                <use fill="#E4C1F9" fill-rule="evenodd" xlink:href="#path-23"></use>
            </g>
            <text id="Goroutine-Pool" font-family="MarkerFelt-Wide, Marker Felt" font-size="22" font-weight="bold" fill="#FFFFFF">
                <tspan x="27.595" y="78">Goroutine </tspan>
                <tspan x="55.557" y="103">Pool</tspan>
            </text>
        </g>
        <path d="M315,582 L465,582 L465,649 L315,649 L315,582 Z" id="Path-4" stroke="#50616D" stroke-width="3" stroke-dasharray="5"></path>
        <path d="M315,660 L465,660 L465,727 L315,727 L315,660 Z" id="Path-4" stroke="#50616D" stroke-width="3" stroke-dasharray="5"></path>
        <g id="Read2" transform="translate(563.000000, 524.000000)">
            <g id="Rectangle">
                <use fill="black" fill-opacity="1" filter="url(#filter-26)" xlink:href="#path-25"></use>
                <use fill="#FFC43D" fill-rule="evenodd" xlink:href="#path-25"></use>
            </g>
            <text id="Read" font-family="MarkerFelt-Wide, Marker Felt" font-size="16" font-weight="bold" fill="#FFFFFF">
                <tspan x="25.028" y="23">Read</tspan>
            </text>
        </g>
        <g id="Decode2" transform="translate(678.000000, 524.000000)">
            <g id="Rectangle">
                <use fill="black" fill-opacity="1" filter="url(#filter-28)" xlink:href="#path-27"></use>
                <use fill="#FFC43D" fill-rule="evenodd" xlink:href="#path-27"></use>
            </g>
            <text id="Decode" font-family="MarkerFelt-Wide, Marker Felt" font-size="16" font-weight="bold" fill="#FFFFFF">
                <tspan x="17.648" y="23">Decode</tspan>
            </text>
        </g>
        <g id="Encode2" transform="translate(908.000000, 524.000000)">
            <g id="Rectangle">
                <use fill="black" fill-opacity="1" filter="url(#filter-30)" xlink:href="#path-29"></use>
                <use fill="#FFC43D" fill-rule="evenodd" xlink:href="#path-29"></use>
            </g>
            <text id="Encode" font-family="MarkerFelt-Wide, Marker Felt" font-size="16" font-weight="bold" fill="#FFFFFF">
                <tspan x="18.932" y="23">Encode</tspan>
            </text>
        </g>
        <path id="Path-6" d="M437,615 L437,617 L432,617 L432,615 L437,615 Z M447,615 L447,617 L442,617 L442,615 L447,615 Z M457,615 L457,617 L452,617 L452,615 L457,615 Z M467,615 L467,617 L462,617 L462,615 L467,615 Z M477,615 L477,617 L472,617 L472,615 L477,615 Z M487,615 L487,617 L482,617 L482,615 L487,615 Z M495,613 L495,617 L492,617 L492,615 L493,615 L493,613 L495,613 Z M495,603 L495,608 L493,608 L493,603 L495,603 Z M495,593 L495,598 L493,598 L493,593 L495,593 Z M495,583 L495,588 L493,588 L493,583 L495,583 Z M495,573 L495,578 L493,578 L493,573 L495,573 Z M495,563 L495,568 L493,568 L493,563 L495,563 Z M495,553 L495,558 L493,558 L493,553 L495,553 Z M495,543 L495,548 L493,548 L493,543 L495,543 Z M495,533 L495,538 L493,538 L493,533 L495,533 Z M495,523 L495,528 L493,528 L493,523 L495,523 Z M495,513 L495,518 L493,518 L493,513 L495,513 Z M495,503 L495,508 L493,508 L493,503 L495,503 Z M495,493 L495,498 L493,498 L493,493 L495,493 Z M495,483 L495,488 L493,488 L493,483 L495,483 Z M495,473 L495,478 L493,478 L493,473 L495,473 Z M495,463 L495,468 L493,468 L493,463 L495,463 Z M495,453 L495,458 L493,458 L493,453 L495,453 Z M495,443 L495,448 L493,448 L493,443 L495,443 Z M495,433 L495,438 L493,438 L493,433 L495,433 Z M495,423 L495,428 L493,428 L493,423 L495,423 Z M495,413 L495,418 L493,418 L493,413 L495,413 Z M495,403 L495,408 L493,408 L493,403 L495,403 Z M631.206803,399.206803 L631.206803,401.206803 L626.206803,401.206803 L626.206803,399.206803 L631.206803,399.206803 Z M501.206803,399.206803 L501.206803,401.206803 L496.206803,401.206803 L496.206803,399.206803 L501.206803,399.206803 Z M511.206803,399.206803 L511.206803,401.206803 L506.206803,401.206803 L506.206803,399.206803 L511.206803,399.206803 Z M521.206803,399.206803 L521.206803,401.206803 L516.206803,401.206803 L516.206803,399.206803 L521.206803,399.206803 Z M531.206803,399.206803 L531.206803,401.206803 L526.206803,401.206803 L526.206803,399.206803 L531.206803,399.206803 Z M541.206803,399.206803 L541.206803,401.206803 L536.206803,401.206803 L536.206803,399.206803 L541.206803,399.206803 Z M551.206803,399.206803 L551.206803,401.206803 L546.206803,401.206803 L546.206803,399.206803 L551.206803,399.206803 Z M561.206803,399.206803 L561.206803,401.206803 L556.206803,401.206803 L556.206803,399.206803 L561.206803,399.206803 Z M571.206803,399.206803 L571.206803,401.206803 L566.206803,401.206803 L566.206803,399.206803 L571.206803,399.206803 Z M581.206803,399.206803 L581.206803,401.206803 L576.206803,401.206803 L576.206803,399.206803 L581.206803,399.206803 Z M591.206803,399.206803 L591.206803,401.206803 L586.206803,401.206803 L586.206803,399.206803 L591.206803,399.206803 Z M601.206803,399.206803 L601.206803,401.206803 L596.206803,401.206803 L596.206803,399.206803 L601.206803,399.206803 Z M611.206803,399.206803 L611.206803,401.206803 L606.206803,401.206803 L606.206803,399.206803 L611.206803,399.206803 Z M621.206803,399.206803 L621.206803,401.206803 L616.206803,401.206803 L616.206803,399.206803 L621.206803,399.206803 Z M861,399.206803 L861,400 L862,400 L862,401.206803 L856.206803,401.206803 L856.206803,399.206803 L861,399.206803 Z M641.206803,399.206803 L641.206803,401.206803 L636.206803,401.206803 L636.206803,399.206803 L641.206803,399.206803 Z M651.206803,399.206803 L651.206803,401.206803 L646.206803,401.206803 L646.206803,399.206803 L651.206803,399.206803 Z M661.206803,399.206803 L661.206803,401.206803 L656.206803,401.206803 L656.206803,399.206803 L661.206803,399.206803 Z M671.206803,399.206803 L671.206803,401.206803 L666.206803,401.206803 L666.206803,399.206803 L671.206803,399.206803 Z M681.206803,399.206803 L681.206803,401.206803 L676.206803,401.206803 L676.206803,399.206803 L681.206803,399.206803 Z M691.206803,399.206803 L691.206803,401.206803 L686.206803,401.206803 L686.206803,399.206803 L691.206803,399.206803 Z M701.206803,399.206803 L701.206803,401.206803 L696.206803,401.206803 L696.206803,399.206803 L701.206803,399.206803 Z M711.206803,399.206803 L711.206803,401.206803 L706.206803,401.206803 L706.206803,399.206803 L711.206803,399.206803 Z M721.206803,399.206803 L721.206803,401.206803 L716.206803,401.206803 L716.206803,399.206803 L721.206803,399.206803 Z M731.206803,399.206803 L731.206803,401.206803 L726.206803,401.206803 L726.206803,399.206803 L731.206803,399.206803 Z M741.206803,399.206803 L741.206803,401.206803 L736.206803,401.206803 L736.206803,399.206803 L741.206803,399.206803 Z M751.206803,399.206803 L751.206803,401.206803 L746.206803,401.206803 L746.206803,399.206803 L751.206803,399.206803 Z M761.206803,399.206803 L761.206803,401.206803 L756.206803,401.206803 L756.206803,399.206803 L761.206803,399.206803 Z M771.206803,399.206803 L771.206803,401.206803 L766.206803,401.206803 L766.206803,399.206803 L771.206803,399.206803 Z M781.206803,399.206803 L781.206803,401.206803 L776.206803,401.206803 L776.206803,399.206803 L781.206803,399.206803 Z M791.206803,399.206803 L791.206803,401.206803 L786.206803,401.206803 L786.206803,399.206803 L791.206803,399.206803 Z M801.206803,399.206803 L801.206803,401.206803 L796.206803,401.206803 L796.206803,399.206803 L801.206803,399.206803 Z M811.206803,399.206803 L811.206803,401.206803 L806.206803,401.206803 L806.206803,399.206803 L811.206803,399.206803 Z M821.206803,399.206803 L821.206803,401.206803 L816.206803,401.206803 L816.206803,399.206803 L821.206803,399.206803 Z M831.206803,399.206803 L831.206803,401.206803 L826.206803,401.206803 L826.206803,399.206803 L831.206803,399.206803 Z M841.206803,399.206803 L841.206803,401.206803 L836.206803,401.206803 L836.206803,399.206803 L841.206803,399.206803 Z M851.206803,399.206803 L851.206803,401.206803 L846.206803,401.206803 L846.206803,399.206803 L851.206803,399.206803 Z M862,390 L862,395 L860,395 L860,390 L862,390 Z M862,380 L862,385 L860,385 L860,380 L862,380 Z M862,370 L862,375 L860,375 L860,370 L862,370 Z M862,360 L862,365 L860,365 L860,360 L862,360 Z M862,350 L862,355 L860,355 L860,350 L862,350 Z M862,340 L862,345 L860,345 L860,340 L862,340 Z M862,330 L862,335 L860,335 L860,330 L862,330 Z M862,320 L862,325 L860,325 L860,320 L862,320 Z M862,310 L862,315 L860,315 L860,310 L862,310 Z M862,300 L862,305 L860,305 L860,300 L862,300 Z M862,290 L862,295 L860,295 L860,290 L862,290 Z M862,280 L862,285 L860,285 L860,280 L862,280 Z M862,270 L862,275 L860,275 L860,270 L862,270 Z M862,260 L862,265 L860,265 L860,260 L862,260 Z M894,241 L908,248 L894,255 L894,241 Z M862,250 L862,255 L860,255 L860,250 L862,250 Z M869,247 L869,249 L864,249 L864,247 L869,247 Z M879,247 L879,249 L874,249 L874,247 L879,247 Z M889,247 L889,249 L884,249 L884,247 L889,247 Z" fill="#50616D" fill-rule="nonzero"></path>
        <path id="Path-5" d="M391,580.017096 L391,584 L397,584 L390,598 L383,584 L389,584 L389,580.017096 L391,580.017096 Z M391,570.017096 L391,575.017096 L389,575.017096 L389,570.017096 L391,570.017096 Z M391,560.017096 L391,565.017096 L389,565.017096 L389,560.017096 L391,560.017096 Z M391,550.017096 L391,555.017096 L389,555.017096 L389,550.017096 L391,550.017096 Z M391,540.017096 L391,545.017096 L389,545.017096 L389,540.017096 L391,540.017096 Z M391,530.017096 L391,535.017096 L389,535.017096 L389,530.017096 L391,530.017096 Z M391,520.017096 L391,525.017096 L389,525.017096 L389,520.017096 L391,520.017096 Z M391,510.017096 L391,515.017096 L389,515.017096 L389,510.017096 L391,510.017096 Z M391,500.017096 L391,505.017096 L389,505.017096 L389,500.017096 L391,500.017096 Z M391,490.017096 L391,495.017096 L389,495.017096 L389,490.017096 L391,490.017096 Z M391,480.017096 L391,485.017096 L389,485.017096 L389,480.017096 L391,480.017096 Z M391,470.017096 L391,475.017096 L389,475.017096 L389,470.017096 L391,470.017096 Z M391,460.017096 L391,465.017096 L389,465.017096 L389,460.017096 L391,460.017096 Z M391,450.017096 L391,455.017096 L389,455.017096 L389,450.017096 L391,450.017096 Z M391,440.017096 L391,445.017096 L389,445.017096 L389,440.017096 L391,440.017096 Z M391,430.017096 L391,435.017096 L389,435.017096 L389,430.017096 L391,430.017096 Z M391,420.017096 L391,425.017096 L389,425.017096 L389,420.017096 L391,420.017096 Z M391,410.017096 L391,415.017096 L389,415.017096 L389,410.017096 L391,410.017096 Z M391,400.017096 L391,405.017096 L389,405.017096 L389,400.017096 L391,400.017096 Z M391,390.017096 L391,395.017096 L389,395.017096 L389,390.017096 L391,390.017096 Z M391,380.017096 L391,385.017096 L389,385.017096 L389,380.017096 L391,380.017096 Z M391,370.017096 L391,375.017096 L389,375.017096 L389,370.017096 L391,370.017096 Z M391,360.017096 L391,365.017096 L389,365.017096 L389,360.017096 L391,360.017096 Z M391,350.017096 L391,355.017096 L389,355.017096 L389,350.017096 L391,350.017096 Z M391,340.017096 L391,345.017096 L389,345.017096 L389,340.017096 L391,340.017096 Z M391,330.017096 L391,335.017096 L389,335.017096 L389,330.017096 L391,330.017096 Z M706.094492,325.111588 L706.094492,327.111588 L701.094492,327.111588 L701.094492,325.111588 L706.094492,325.111588 Z M696.094492,325.111588 L696.094492,327.111588 L691.094492,327.111588 L691.094492,325.111588 L696.094492,325.111588 Z M686.094492,325.111588 L686.094492,327.111588 L681.094492,327.111588 L681.094492,325.111588 L686.094492,325.111588 Z M676.094492,325.111588 L676.094492,327.111588 L671.094492,327.111588 L671.094492,325.111588 L676.094492,325.111588 Z M666.094492,325.111588 L666.094492,327.111588 L661.094492,327.111588 L661.094492,325.111588 L666.094492,325.111588 Z M656.094492,325.111588 L656.094492,327.111588 L651.094492,327.111588 L651.094492,325.111588 L656.094492,325.111588 Z M646.094492,325.111588 L646.094492,327.111588 L641.094492,327.111588 L641.094492,325.111588 L646.094492,325.111588 Z M636.094492,325.111588 L636.094492,327.111588 L631.094492,327.111588 L631.094492,325.111588 L636.094492,325.111588 Z M626.094492,325.111588 L626.094492,327.111588 L621.094492,327.111588 L621.094492,325.111588 L626.094492,325.111588 Z M616.094492,325.111588 L616.094492,327.111588 L611.094492,327.111588 L611.094492,325.111588 L616.094492,325.111588 Z M606.094492,325.111588 L606.094492,327.111588 L601.094492,327.111588 L601.094492,325.111588 L606.094492,325.111588 Z M596.094492,325.111588 L596.094492,327.111588 L591.094492,327.111588 L591.094492,325.111588 L596.094492,325.111588 Z M586.094492,325.111588 L586.094492,327.111588 L581.094492,327.111588 L581.094492,325.111588 L586.094492,325.111588 Z M576.094492,325.111588 L576.094492,327.111588 L571.094492,327.111588 L571.094492,325.111588 L576.094492,325.111588 Z M566.094492,325.111588 L566.094492,327.111588 L561.094492,327.111588 L561.094492,325.111588 L566.094492,325.111588 Z M556.094492,325.111588 L556.094492,327.111588 L551.094492,327.111588 L551.094492,325.111588 L556.094492,325.111588 Z M546.094492,325.111588 L546.094492,327.111588 L541.094492,327.111588 L541.094492,325.111588 L546.094492,325.111588 Z M536.094492,325.111588 L536.094492,327.111588 L531.094492,327.111588 L531.094492,325.111588 L536.094492,325.111588 Z M526.094492,325.111588 L526.094492,327.111588 L521.094492,327.111588 L521.094492,325.111588 L526.094492,325.111588 Z M516.094492,325.111588 L516.094492,327.111588 L511.094492,327.111588 L511.094492,325.111588 L516.094492,325.111588 Z M506.094492,325.111588 L506.094492,327.111588 L501.094492,327.111588 L501.094492,325.111588 L506.094492,325.111588 Z M496.094492,325.111588 L496.094492,327.111588 L491.094492,327.111588 L491.094492,325.111588 L496.094492,325.111588 Z M486.094492,325.111588 L486.094492,327.111588 L481.094492,327.111588 L481.094492,325.111588 L486.094492,325.111588 Z M476.094492,325.111588 L476.094492,327.111588 L471.094492,327.111588 L471.094492,325.111588 L476.094492,325.111588 Z M466.094492,325.111588 L466.094492,327.111588 L461.094492,327.111588 L461.094492,325.111588 L466.094492,325.111588 Z M456.094492,325.111588 L456.094492,327.111588 L451.094492,327.111588 L451.094492,325.111588 L456.094492,325.111588 Z M446.094492,325.111588 L446.094492,327.111588 L441.094492,327.111588 L441.094492,325.111588 L446.094492,325.111588 Z M436.094492,325.111588 L436.094492,327.111588 L431.094492,327.111588 L431.094492,325.111588 L436.094492,325.111588 Z M426.094492,325.111588 L426.094492,327.111588 L421.094492,327.111588 L421.094492,325.111588 L426.094492,325.111588 Z M416.094492,325.111588 L416.094492,327.111588 L411.094492,327.111588 L411.094492,325.111588 L416.094492,325.111588 Z M406.094492,325.111588 L406.094492,327.111588 L401.094492,327.111588 L401.094492,325.111588 L406.094492,325.111588 Z M396.094492,325.111588 L396.094492,327.111588 L391.094492,327.111588 L391.094492,325.111588 L396.094492,325.111588 Z M716.094492,325.111588 L716.094492,327.111588 L711.094492,327.111588 L711.094492,325.111588 L716.094492,325.111588 Z M726.094492,325.111588 L726.094492,327.111588 L721.094492,327.111588 L721.094492,325.111588 L726.094492,325.111588 Z M736.094492,325.111588 L736.094492,327.111588 L731.094492,327.111588 L731.094492,325.111588 L736.094492,325.111588 Z M746.094492,325.111588 L746.094492,327.111588 L741.094492,327.111588 L741.094492,325.111588 L746.094492,325.111588 Z M756.094492,325.111588 L756.094492,327.111588 L751.094492,327.111588 L751.094492,325.111588 L756.094492,325.111588 Z M766.094492,325.111588 L766.094492,327.111588 L761.094492,327.111588 L761.094492,325.111588 L766.094492,325.111588 Z M776.094492,325.111588 L776.094492,327.111588 L771.094492,327.111588 L771.094492,325.111588 L776.094492,325.111588 Z M786.094492,325.111588 L786.094492,327.111588 L781.094492,327.111588 L781.094492,325.111588 L786.094492,325.111588 Z M796.094492,325.111588 L796.094492,327.111588 L791.094492,327.111588 L791.094492,325.111588 L796.094492,325.111588 Z M806.094492,325.111588 L806.094492,327.111588 L801.094492,327.111588 L801.094492,325.111588 L806.094492,325.111588 Z M816,325.017096 L816,327.111588 L811.094492,327.111588 L811.094492,325.111588 L814,325.111 L814,325.017096 L816,325.017096 Z M816,315.017096 L816,320.017096 L814,320.017096 L814,315.017096 L816,315.017096 Z M816,305.017096 L816,310.017096 L814,310.017096 L814,305.017096 L816,305.017096 Z M816,295.017096 L816,300.017096 L814,300.017096 L814,295.017096 L816,295.017096 Z M816,285.017096 L816,290.017096 L814,290.017096 L814,285.017096 L816,285.017096 Z M816,275.017096 L816,280.017096 L814,280.017096 L814,275.017096 L816,275.017096 Z M816,265.017096 L816,270.017096 L814,270.017096 L814,265.017096 L816,265.017096 Z M816,255.017096 L816,260.017096 L814,260.017096 L814,255.017096 L816,255.017096 Z M816,247 L816,250.017096 L814,250.017096 L814,249 L812.017096,249 L812.017096,247 L816,247 Z M807.017096,247 L807.017096,249 L802.017096,249 L802.017096,247 L807.017096,247 Z M797.017096,247 L797.017096,249 L792.017096,249 L792.017096,247 L797.017096,247 Z M787.017096,247 L787.017096,249 L782.017096,249 L782.017096,247 L787.017096,247 Z M777.017096,247 L777.017096,249 L772.017096,249 L772.017096,247 L777.017096,247 Z M767.017096,247 L767.017096,249 L762.017096,249 L762.017096,247 L767.017096,247 Z" fill="#50616D" fill-rule="nonzero"></path>
        <path id="Path-7" d="M446,688 L446,694 L449.983171,694 L449.983171,696 L446,696 L446,702 L432,695 L446,688 Z M739.983171,694 L739.983171,696 L734.983171,696 L734.983171,694 L739.983171,694 Z M459.983171,694 L459.983171,696 L454.983171,696 L454.983171,694 L459.983171,694 Z M469.983171,694 L469.983171,696 L464.983171,696 L464.983171,694 L469.983171,694 Z M479.983171,694 L479.983171,696 L474.983171,696 L474.983171,694 L479.983171,694 Z M489.983171,694 L489.983171,696 L484.983171,696 L484.983171,694 L489.983171,694 Z M499.983171,694 L499.983171,696 L494.983171,696 L494.983171,694 L499.983171,694 Z M509.983171,694 L509.983171,696 L504.983171,696 L504.983171,694 L509.983171,694 Z M519.983171,694 L519.983171,696 L514.983171,696 L514.983171,694 L519.983171,694 Z M529.983171,694 L529.983171,696 L524.983171,696 L524.983171,694 L529.983171,694 Z M539.983171,694 L539.983171,696 L534.983171,696 L534.983171,694 L539.983171,694 Z M549.983171,694 L549.983171,696 L544.983171,696 L544.983171,694 L549.983171,694 Z M559.983171,694 L559.983171,696 L554.983171,696 L554.983171,694 L559.983171,694 Z M569.983171,694 L569.983171,696 L564.983171,696 L564.983171,694 L569.983171,694 Z M579.983171,694 L579.983171,696 L574.983171,696 L574.983171,694 L579.983171,694 Z M589.983171,694 L589.983171,696 L584.983171,696 L584.983171,694 L589.983171,694 Z M599.983171,694 L599.983171,696 L594.983171,696 L594.983171,694 L599.983171,694 Z M609.983171,694 L609.983171,696 L604.983171,696 L604.983171,694 L609.983171,694 Z M619.983171,694 L619.983171,696 L614.983171,696 L614.983171,694 L619.983171,694 Z M629.983171,694 L629.983171,696 L624.983171,696 L624.983171,694 L629.983171,694 Z M639.983171,694 L639.983171,696 L634.983171,696 L634.983171,694 L639.983171,694 Z M649.983171,694 L649.983171,696 L644.983171,696 L644.983171,694 L649.983171,694 Z M659.983171,694 L659.983171,696 L654.983171,696 L654.983171,694 L659.983171,694 Z M816,690.016829 L816,696 L814.983171,696 L814.983,695 L814,695 L814,690.016829 L816,690.016829 Z M809.983171,694 L809.983171,696 L804.983171,696 L804.983171,694 L809.983171,694 Z M799.983171,694 L799.983171,696 L794.983171,696 L794.983171,694 L799.983171,694 Z M789.983171,694 L789.983171,696 L784.983171,696 L784.983171,694 L789.983171,694 Z M779.983171,694 L779.983171,696 L774.983171,696 L774.983171,694 L779.983171,694 Z M769.983171,694 L769.983171,696 L764.983171,696 L764.983171,694 L769.983171,694 Z M759.983171,694 L759.983171,696 L754.983171,696 L754.983171,694 L759.983171,694 Z M749.983171,694 L749.983171,696 L744.983171,696 L744.983171,694 L749.983171,694 Z M729.983171,694 L729.983171,696 L724.983171,696 L724.983171,694 L729.983171,694 Z M719.983171,694 L719.983171,696 L714.983171,696 L714.983171,694 L719.983171,694 Z M709.983171,694 L709.983171,696 L704.983171,696 L704.983171,694 L709.983171,694 Z M699.983171,694 L699.983171,696 L694.983171,696 L694.983171,694 L699.983171,694 Z M689.983171,694 L689.983171,696 L684.983171,696 L684.983171,694 L689.983171,694 Z M679.983171,694 L679.983171,696 L674.983171,696 L674.983171,694 L679.983171,694 Z M669.983171,694 L669.983171,696 L664.983171,696 L664.983171,694 L669.983171,694 Z M816,680.016829 L816,685.016829 L814,685.016829 L814,680.016829 L816,680.016829 Z M816,670.016829 L816,675.016829 L814,675.016829 L814,670.016829 L816,670.016829 Z M816,660.016829 L816,665.016829 L814,665.016829 L814,660.016829 L816,660.016829 Z M816,650.016829 L816,655.016829 L814,655.016829 L814,650.016829 L816,650.016829 Z M816,640.016829 L816,645.016829 L814,645.016829 L814,640.016829 L816,640.016829 Z M816,630.016829 L816,635.016829 L814,635.016829 L814,630.016829 L816,630.016829 Z M816,620.016829 L816,625.016829 L814,625.016829 L814,620.016829 L816,620.016829 Z M816,610.016829 L816,615.016829 L814,615.016829 L814,610.016829 L816,610.016829 Z M816,600.016829 L816,605.016829 L814,605.016829 L814,600.016829 L816,600.016829 Z M816,590.016829 L816,595.016829 L814,595.016829 L814,590.016829 L816,590.016829 Z M816,580.016829 L816,585.016829 L814,585.016829 L814,580.016829 L816,580.016829 Z M816,570.016829 L816,575.016829 L814,575.016829 L814,570.016829 L816,570.016829 Z M816,560.016829 L816,565.016829 L814,565.016829 L814,560.016829 L816,560.016829 Z M816,550.016829 L816,555.016829 L814,555.016829 L814,550.016829 L816,550.016829 Z M816,542 L816,545.016829 L814,545.016829 L814,544 L812.016829,544 L812.016829,542 L816,542 Z M807.016829,542 L807.016829,544 L802.016829,544 L802.016829,542 L807.016829,542 Z M797.016829,542 L797.016829,544 L792.016829,544 L792.016829,542 L797.016829,542 Z M787.016829,542 L787.016829,544 L782.016829,544 L782.016829,542 L787.016829,542 Z M777.016829,542 L777.016829,544 L772.016829,544 L772.016829,542 L777.016829,542 Z M767.016829,542 L767.016829,544 L762.016829,544 L762.016829,542 L767.016829,542 Z" fill="#50616D" fill-rule="nonzero"></path>
        <g id="Compute2" transform="translate(348.000000, 677.000000)">
            <g id="Rectangle">
                <use fill="black" fill-opacity="1" filter="url(#filter-32)" xlink:href="#path-31"></use>
                <use fill="#FFC43D" fill-rule="evenodd" xlink:href="#path-31"></use>
            </g>
            <text id="Compute" font-family="MarkerFelt-Wide, Marker Felt" font-size="16" font-weight="bold" fill="#FFFFFF">
                <tspan x="11.032" y="23">Compute</tspan>
            </text>
        </g>
        <text id="Worker-Goroutine" fill="#50514F" font-family="MarkerFelt-Thin, Marker Felt" font-size="16" font-weight="300">
            <tspan x="256.276" y="574">Worker Goroutine</tspan>
        </text>
        <text id="Worker-Goroutine" fill="#50514F" font-family="MarkerFelt-Thin, Marker Felt" font-size="16" font-weight="300">
            <tspan x="256.276" y="743">Worker Goroutine</tspan>
        </text>
        <g id="write-op" transform="translate(1023.000000, 230.000000)">
            <g id="Rectangle">
                <use fill="black" fill-opacity="1" filter="url(#filter-34)" xlink:href="#path-33"></use>
                <use fill="#FFC43D" fill-rule="evenodd" xlink:href="#path-33"></use>
            </g>
            <text id="Write" font-family="MarkerFelt-Wide, Marker Felt" font-size="16" font-weight="bold" fill="#FFFFFF">
                <tspan x="22.964" y="25">Write</tspan>
            </text>
        </g>
        <g id="write-op" transform="translate(1023.000000, 524.000000)">
            <g id="Rectangle">
                <use fill="black" fill-opacity="1" filter="url(#filter-36)" xlink:href="#path-35"></use>
                <use fill="#FFC43D" fill-rule="evenodd" xlink:href="#path-35"></use>
            </g>
            <text id="Write" font-family="MarkerFelt-Wide, Marker Felt" font-size="16" font-weight="bold" fill="#FFFFFF">
                <tspan x="22.964" y="25">Write</tspan>
            </text>
        </g>
        <path id="Path-8" d="M721,745 L721,747 L716,747 L716,745 L721,745 Z M731,745 L731,747 L726,747 L726,745 L731,745 Z M861,745 L861,747 L856,747 L856,745 L861,745 Z M851,745 L851,747 L846,747 L846,745 L851,745 Z M391,742 L391,747 L389,747 L389,742 L391,742 Z M841,745 L841,747 L836,747 L836,745 L841,745 Z M401,745 L401,747 L396,747 L396,745 L401,745 Z M411,745 L411,747 L406,747 L406,745 L411,745 Z M421,745 L421,747 L416,747 L416,745 L421,745 Z M431,745 L431,747 L426,747 L426,745 L431,745 Z M441,745 L441,747 L436,747 L436,745 L441,745 Z M451,745 L451,747 L446,747 L446,745 L451,745 Z M461,745 L461,747 L456,747 L456,745 L461,745 Z M471,745 L471,747 L466,747 L466,745 L471,745 Z M481,745 L481,747 L476,747 L476,745 L481,745 Z M491,745 L491,747 L486,747 L486,745 L491,745 Z M501,745 L501,747 L496,747 L496,745 L501,745 Z M511,745 L511,747 L506,747 L506,745 L511,745 Z M521,745 L521,747 L516,747 L516,745 L521,745 Z M531,745 L531,747 L526,747 L526,745 L531,745 Z M541,745 L541,747 L536,747 L536,745 L541,745 Z M551,745 L551,747 L546,747 L546,745 L551,745 Z M561,745 L561,747 L556,747 L556,745 L561,745 Z M571,745 L571,747 L566,747 L566,745 L571,745 Z M581,745 L581,747 L576,747 L576,745 L581,745 Z M591,745 L591,747 L586,747 L586,745 L591,745 Z M601,745 L601,747 L596,747 L596,745 L601,745 Z M611,745 L611,747 L606,747 L606,745 L611,745 Z M621,745 L621,747 L616,747 L616,745 L621,745 Z M631,745 L631,747 L626,747 L626,745 L631,745 Z M641,745 L641,747 L636,747 L636,745 L641,745 Z M651,745 L651,747 L646,747 L646,745 L651,745 Z M661,745 L661,747 L656,747 L656,745 L661,745 Z M671,745 L671,747 L666,747 L666,745 L671,745 Z M681,745 L681,747 L676,747 L676,745 L681,745 Z M691,745 L691,747 L686,747 L686,745 L691,745 Z M701,745 L701,747 L696,747 L696,745 L701,745 Z M711,745 L711,747 L706,747 L706,745 L711,745 Z M821,745 L821,747 L816,747 L816,745 L821,745 Z M831,745 L831,747 L826,747 L826,745 L831,745 Z M741,745 L741,747 L736,747 L736,745 L741,745 Z M751,745 L751,747 L746,747 L746,745 L751,745 Z M761,745 L761,747 L756,747 L756,745 L761,745 Z M771,745 L771,747 L766,747 L766,745 L771,745 Z M781,745 L781,747 L776,747 L776,745 L781,745 Z M791,745 L791,747 L786,747 L786,745 L791,745 Z M801,745 L801,747 L796,747 L796,745 L801,745 Z M811,745 L811,747 L806,747 L806,745 L811,745 Z M863.980469,737.980469 L863.980469,742.980469 L861.980469,742.980469 L861.980469,737.980469 L863.980469,737.980469 Z M391,732 L391,737 L389,737 L389,732 L391,732 Z M863.980469,727.980469 L863.980469,732.980469 L861.980469,732.980469 L861.980469,727.980469 L863.980469,727.980469 Z M391,722 L391,727 L389,727 L389,722 L391,722 Z M863.980469,717.980469 L863.980469,722.980469 L861.980469,722.980469 L861.980469,717.980469 L863.980469,717.980469 Z M391,712 L391,717 L389,717 L389,712 L391,712 Z M863.980469,707.980469 L863.980469,712.980469 L861.980469,712.980469 L861.980469,707.980469 L863.980469,707.980469 Z M863.980469,697.980469 L863.980469,702.980469 L861.980469,702.980469 L861.980469,697.980469 L863.980469,697.980469 Z M863.980469,687.980469 L863.980469,692.980469 L861.980469,692.980469 L861.980469,687.980469 L863.980469,687.980469 Z M863.980469,677.980469 L863.980469,682.980469 L861.980469,682.980469 L861.980469,677.980469 L863.980469,677.980469 Z M863.980469,667.980469 L863.980469,672.980469 L861.980469,672.980469 L861.980469,667.980469 L863.980469,667.980469 Z M863.980469,657.980469 L863.980469,662.980469 L861.980469,662.980469 L861.980469,657.980469 L863.980469,657.980469 Z M863.980469,647.980469 L863.980469,652.980469 L861.980469,652.980469 L861.980469,647.980469 L863.980469,647.980469 Z M863.980469,637.980469 L863.980469,642.980469 L861.980469,642.980469 L861.980469,637.980469 L863.980469,637.980469 Z M863.980469,627.980469 L863.980469,632.980469 L861.980469,632.980469 L861.980469,627.980469 L863.980469,627.980469 Z M863.980469,617.980469 L863.980469,622.980469 L861.980469,622.980469 L861.980469,617.980469 L863.980469,617.980469 Z M863.980469,607.980469 L863.980469,612.980469 L861.980469,612.980469 L861.980469,607.980469 L863.980469,607.980469 Z M863.980469,597.980469 L863.980469,602.980469 L861.980469,602.980469 L861.980469,597.980469 L863.980469,597.980469 Z M863.980469,587.980469 L863.980469,592.980469 L861.980469,592.980469 L861.980469,587.980469 L863.980469,587.980469 Z M863.980469,577.980469 L863.980469,582.980469 L861.980469,582.980469 L861.980469,577.980469 L863.980469,577.980469 Z M863.980469,567.980469 L863.980469,572.980469 L861.980469,572.980469 L861.980469,567.980469 L863.980469,567.980469 Z M863.980469,557.980469 L863.980469,562.980469 L861.980469,562.980469 L861.980469,557.980469 L863.980469,557.980469 Z M863.980469,547.980469 L863.980469,552.980469 L861.980469,552.980469 L861.980469,547.980469 L863.980469,547.980469 Z M894,536 L908,543 L894,550 L894,544 L893,544 L893,542 L894,542 L894,536 Z M868,542 L868,544 L863,544 L863,542 L868,542 Z M878,542 L878,544 L873,544 L873,542 L878,542 Z M888,542 L888,544 L883,544 L883,542 L888,542 Z" fill="#50616D" fill-rule="nonzero"></path>
    </g>
</svg>