<?xml version="1.0" encoding="UTF-8"?>
<svg width="1200px" height="594px" viewBox="0 0 1200 594" version="1.1" xmlns="http://www.w3.org/2000/svg" xmlns:xlink="http://www.w3.org/1999/xlink">
    <title>multi-reactors</title>
    <defs>
        <circle id="path-1" cx="30" cy="30" r="30"></circle>
        <filter x="-11.7%" y="-8.3%" width="123.3%" height="123.3%" filterUnits="objectBoundingBox" id="filter-2">
            <feOffset dx="0" dy="2" in="SourceAlpha" result="shadowOffsetOuter1"></feOffset>
            <feGaussianBlur stdDeviation="2" in="shadowOffsetOuter1" result="shadowBlurOuter1"></feGaussianBlur>
            <feColorMatrix values="0 0 0 0 0   0 0 0 0 0   0 0 0 0 0  0 0 0 0.5 0" type="matrix" in="shadowBlurOuter1"></feColorMatrix>
        </filter>
        <circle id="path-3" cx="30" cy="30" r="30"></circle>
        <filter x="-11.7%" y="-8.3%" width="123.3%" height="123.3%" filterUnits="objectBoundingBox" id="filter-4">
            <feOffset dx="0" dy="2" in="SourceAlpha" result="shadowOffsetOuter1"></feOffset>
            <feGaussianBlur stdDeviation="2" in="shadowOffsetOuter1" result="shadowBlurOuter1"></feGaussianBlur>
            <feColorMatrix values="0 0 0 0 0   0 0 0 0 0   0 0 0 0 0  0 0 0 0.5 0" type="matrix" in="shadowBlurOuter1"></feColorMatrix>
        </filter>
        <circle id="path-5" cx="30" cy="30" r="30"></circle>
        <filter x="-11.7%" y="-8.3%" width="123.3%" height="123.3%" filterUnits="objectBoundingBox" id="filter-6">
            <feOffset dx="0" dy="2" in="SourceAlpha" result="shadowOffsetOuter1"></feOffset>
            <feGaussianBlur stdDeviation="2" in="shadowOffsetOuter1" result="shadowBlurOuter1"></feGaussianBlur>
            <feColorMatrix values="0 0 0 0 0   0 0 0 0 0   0 0 0 0 0  0 0 0 0.5 0" type="matrix" in="shadowBlurOuter1"></feColorMatrix>
        </filter>
        <rect id="path-7" x="0" y="0" width="150" height="60" rx="8"></rect>
        <filter x="-4.7%" y="-8.3%" width="109.3%" height="123.3%" filterUnits="objectBoundingBox" id="filter-8">
            <feOffset dx="0" dy="2" in="SourceAlpha" result="shadowOffsetOuter1"></feOffset>
            <feGaussianBlur stdDeviation="2" in="shadowOffsetOuter1" result="shadowBlurOuter1"></feGaussianBlur>
            <feColorMatrix values="0 0 0 0 0   0 0 0 0 0   0 0 0 0 0  0 0 0 0.5 0" type="matrix" in="shadowBlurOuter1"></feColorMatrix>
        </filter>
        <rect id="path-9" x="0" y="0" width="170" height="60" rx="8"></rect>
        <filter x="-4.1%" y="-8.3%" width="108.2%" height="123.3%" filterUnits="objectBoundingBox" id="filter-10">
            <feOffset dx="0" dy="2" in="SourceAlpha" result="shadowOffsetOuter1"></feOffset>
            <feGaussianBlur stdDeviation="2" in="shadowOffsetOuter1" result="shadowBlurOuter1"></feGaussianBlur>
            <feColorMatrix values="0 0 0 0 0   0 0 0 0 0   0 0 0 0 0  0 0 0 0.5 0" type="matrix" in="shadowBlurOuter1"></feColorMatrix>
        </filter>
        <rect id="path-11" x="0" y="0" width="84" height="35" rx="8"></rect>
        <filter x="-8.3%" y="-14.3%" width="116.7%" height="140.0%" filterUnits="objectBoundingBox" id="filter-12">
            <feOffset dx="0" dy="2" in="SourceAlpha" result="shadowOffsetOuter1"></feOffset>
            <feGaussianBlur stdDeviation="2" in="shadowOffsetOuter1" result="shadowBlurOuter1"></feGaussianBlur>
            <feColorMatrix values="0 0 0 0 0   0 0 0 0 0   0 0 0 0 0  0 0 0 0.5 0" type="matrix" in="shadowBlurOuter1"></feColorMatrix>
        </filter>
        <rect id="path-13" x="0" y="0" width="84" height="35" rx="8"></rect>
        <filter x="-8.3%" y="-14.3%" width="116.7%" height="140.0%" filterUnits="objectBoundingBox" id="filter-14">
            <feOffset dx="0" dy="2" in="SourceAlpha" result="shadowOffsetOuter1"></feOffset>
            <feGaussianBlur stdDeviation="2" in="shadowOffsetOuter1" result="shadowBlurOuter1"></feGaussianBlur>
            <feColorMatrix values="0 0 0 0 0   0 0 0 0 0   0 0 0 0 0  0 0 0 0.5 0" type="matrix" in="shadowBlurOuter1"></feColorMatrix>
        </filter>
        <rect id="path-15" x="0" y="0" width="84" height="35" rx="8"></rect>
        <filter x="-8.3%" y="-14.3%" width="116.7%" height="140.0%" filterUnits="objectBoundingBox" id="filter-16">
            <feOffset dx="0" dy="2" in="SourceAlpha" result="shadowOffsetOuter1"></feOffset>
            <feGaussianBlur stdDeviation="2" in="shadowOffsetOuter1" result="shadowBlurOuter1"></feGaussianBlur>
            <feColorMatrix values="0 0 0 0 0   0 0 0 0 0   0 0 0 0 0  0 0 0 0.5 0" type="matrix" in="shadowBlurOuter1"></feColorMatrix>
        </filter>
        <rect id="path-17" x="0" y="0" width="84" height="35" rx="8"></rect>
        <filter x="-8.3%" y="-14.3%" width="116.7%" height="140.0%" filterUnits="objectBoundingBox" id="filter-18">
            <feOffset dx="0" dy="2" in="SourceAlpha" result="shadowOffsetOuter1"></feOffset>
            <feGaussianBlur stdDeviation="2" in="shadowOffsetOuter1" result="shadowBlurOuter1"></feGaussianBlur>
            <feColorMatrix values="0 0 0 0 0   0 0 0 0 0   0 0 0 0 0  0 0 0 0.5 0" type="matrix" in="shadowBlurOuter1"></feColorMatrix>
        </filter>
        <rect id="path-19" x="0" y="0" width="84" height="35" rx="8"></rect>
        <filter x="-8.3%" y="-14.3%" width="116.7%" height="140.0%" filterUnits="objectBoundingBox" id="filter-20">
            <feOffset dx="0" dy="2" in="SourceAlpha" result="shadowOffsetOuter1"></feOffset>
            <feGaussianBlur stdDeviation="2" in="shadowOffsetOuter1" result="shadowBlurOuter1"></feGaussianBlur>
            <feColorMatrix values="0 0 0 0 0   0 0 0 0 0   0 0 0 0 0  0 0 0 0.5 0" type="matrix" in="shadowBlurOuter1"></feColorMatrix>
        </filter>
        <circle id="path-21" cx="50" cy="50" r="50"></circle>
        <filter x="-7.0%" y="-5.0%" width="114.0%" height="114.0%" filterUnits="objectBoundingBox" id="filter-22">
            <feOffset dx="0" dy="2" in="SourceAlpha" result="shadowOffsetOuter1"></feOffset>
            <feGaussianBlur stdDeviation="2" in="shadowOffsetOuter1" result="shadowBlurOuter1"></feGaussianBlur>
            <feColorMatrix values="0 0 0 0 0   0 0 0 0 0   0 0 0 0 0  0 0 0 0.5 0" type="matrix" in="shadowBlurOuter1"></feColorMatrix>
        </filter>
        <rect id="path-23" x="0" y="0" width="170" height="60" rx="8"></rect>
        <filter x="-4.1%" y="-8.3%" width="108.2%" height="123.3%" filterUnits="objectBoundingBox" id="filter-24">
            <feOffset dx="0" dy="2" in="SourceAlpha" result="shadowOffsetOuter1"></feOffset>
            <feGaussianBlur stdDeviation="2" in="shadowOffsetOuter1" result="shadowBlurOuter1"></feGaussianBlur>
            <feColorMatrix values="0 0 0 0 0   0 0 0 0 0   0 0 0 0 0  0 0 0 0.5 0" type="matrix" in="shadowBlurOuter1"></feColorMatrix>
        </filter>
        <rect id="path-25" x="0" y="0" width="84" height="35" rx="8"></rect>
        <filter x="-8.3%" y="-14.3%" width="116.7%" height="140.0%" filterUnits="objectBoundingBox" id="filter-26">
            <feOffset dx="0" dy="2" in="SourceAlpha" result="shadowOffsetOuter1"></feOffset>
            <feGaussianBlur stdDeviation="2" in="shadowOffsetOuter1" result="shadowBlurOuter1"></feGaussianBlur>
            <feColorMatrix values="0 0 0 0 0   0 0 0 0 0   0 0 0 0 0  0 0 0 0.5 0" type="matrix" in="shadowBlurOuter1"></feColorMatrix>
        </filter>
        <rect id="path-27" x="0" y="0" width="84" height="35" rx="8"></rect>
        <filter x="-8.3%" y="-14.3%" width="116.7%" height="140.0%" filterUnits="objectBoundingBox" id="filter-28">
            <feOffset dx="0" dy="2" in="SourceAlpha" result="shadowOffsetOuter1"></feOffset>
            <feGaussianBlur stdDeviation="2" in="shadowOffsetOuter1" result="shadowBlurOuter1"></feGaussianBlur>
            <feColorMatrix values="0 0 0 0 0   0 0 0 0 0   0 0 0 0 0  0 0 0 0.5 0" type="matrix" in="shadowBlurOuter1"></feColorMatrix>
        </filter>
        <rect id="path-29" x="0" y="0" width="84" height="35" rx="8"></rect>
        <filter x="-8.3%" y="-14.3%" width="116.7%" height="140.0%" filterUnits="objectBoundingBox" id="filter-30">
            <feOffset dx="0" dy="2" in="SourceAlpha" result="shadowOffsetOuter1"></feOffset>
            <feGaussianBlur stdDeviation="2" in="shadowOffsetOuter1" result="shadowBlurOuter1"></feGaussianBlur>
            <feColorMatrix values="0 0 0 0 0   0 0 0 0 0   0 0 0 0 0  0 0 0 0.5 0" type="matrix" in="shadowBlurOuter1"></feColorMatrix>
        </filter>
        <rect id="path-31" x="0" y="0" width="84" height="35" rx="8"></rect>
        <filter x="-8.3%" y="-14.3%" width="116.7%" height="140.0%" filterUnits="objectBoundingBox" id="filter-32">
            <feOffset dx="0" dy="2" in="SourceAlpha" result="shadowOffsetOuter1"></feOffset>
            <feGaussianBlur stdDeviation="2" in="shadowOffsetOuter1" result="shadowBlurOuter1"></feGaussianBlur>
            <feColorMatrix values="0 0 0 0 0   0 0 0 0 0   0 0 0 0 0  0 0 0 0.5 0" type="matrix" in="shadowBlurOuter1"></feColorMatrix>
        </filter>
        <rect id="path-33" x="0" y="0" width="84" height="35" rx="8"></rect>
        <filter x="-8.3%" y="-14.3%" width="116.7%" height="140.0%" filterUnits="objectBoundingBox" id="filter-34">
            <feOffset dx="0" dy="2" in="SourceAlpha" result="shadowOffsetOuter1"></feOffset>
            <feGaussianBlur stdDeviation="2" in="shadowOffsetOuter1" result="shadowBlurOuter1"></feGaussianBlur>
            <feColorMatrix values="0 0 0 0 0   0 0 0 0 0   0 0 0 0 0  0 0 0 0.5 0" type="matrix" in="shadowBlurOuter1"></feColorMatrix>
        </filter>
    </defs>
    <g id="multi-reactors" stroke="none" stroke-width="1" fill="none" fill-rule="evenodd">
        <g id="Arrows" transform="translate(102.000000, 56.000000)" fill="#50616D" fill-rule="nonzero">
            <path id="Curved-Arrow" d="M565.041279,184.418044 L579,191.5 L564.959202,198.417803 L565.041279,184.418044 Z M562.96465,190.516709 L563.028651,192.515684 C561.073196,192.578292 559.798237,192.611175 558.347409,192.629622 L558.009091,192.63363 L557.987086,190.633751 C559.567178,190.616366 560.871607,190.583721 562.96465,190.516709 Z M548.032241,190.50052 C549.58229,190.550521 551.014298,190.586704 552.351786,190.610266 L553.012762,190.621 L552.98309,192.62078 C551.666242,192.601241 550.259046,192.569206 548.737923,192.523486 L547.967759,192.49948 L548.032241,190.50052 Z"></path>
            <path id="Curved-Arrow" d="M680.041279,184.418044 L694,191.5 L679.959202,198.417803 L680.041279,184.418044 Z M677.96465,190.516709 L678.028651,192.515684 C676.073196,192.578292 674.798237,192.611175 673.347409,192.629622 L673.009091,192.63363 L672.987086,190.633751 C674.567178,190.616366 675.871607,190.583721 677.96465,190.516709 Z M663.032241,190.50052 C664.58229,190.550521 666.014298,190.586704 667.351786,190.610266 L668.012762,190.621 L667.98309,192.62078 C666.666242,192.601241 665.259046,192.569206 663.737923,192.523486 L662.967759,192.49948 L663.032241,190.50052 Z"></path>
            <path id="Curved-Arrow" d="M795.041279,184.418044 L809,191.5 L794.959202,198.417803 L795.041279,184.418044 Z M792.96465,190.516709 L793.028651,192.515684 C791.073196,192.578292 789.798237,192.611175 788.347409,192.629622 L788.009091,192.63363 L787.987086,190.633751 C789.567178,190.616366 790.871607,190.583721 792.96465,190.516709 Z M778.032241,190.50052 C779.58229,190.550521 781.014298,190.586704 782.351786,190.610266 L783.012762,190.621 L782.98309,192.62078 C781.666242,192.601241 780.259046,192.569206 778.737923,192.523486 L777.967759,192.49948 L778.032241,190.50052 Z"></path>
            <path id="Curved-Arrow" d="M910.041279,184.418044 L924,191.5 L909.959202,198.417803 L910.041279,184.418044 Z M907.96465,190.516709 L908.028651,192.515684 C906.073196,192.578292 904.798237,192.611175 903.347409,192.629622 L903.009091,192.63363 L902.987086,190.633751 C904.567178,190.616366 905.871607,190.583721 907.96465,190.516709 Z M893.032241,190.50052 C894.58229,190.550521 896.014298,190.586704 897.351786,190.610266 L898.012762,190.621 L897.98309,192.62078 C896.666242,192.601241 895.259046,192.569206 893.737923,192.523486 L892.967759,192.49948 L893.032241,190.50052 Z"></path>
            <path id="Angled-Arrow" d="M39.5,-1 C50.9808284,-1 60.3098361,8.21303974 60.4971296,19.6492257 L60.5,20 L60.5,87 C60.5,97.3805779 68.8246359,105.816833 79.1622002,105.997058 L79.5,106 L105,106 L105,100 L119,107 L105,114 L105,108 L79.5,108 C68.0191716,108 58.6901639,98.7869603 58.5028704,87.3507743 L58.5,87 L58.5,20 C58.5,9.61942212 50.1753641,1.18316713 39.8377998,1.0029425 L39.5,1 L0,1 L0,-1 L39.5,-1 Z"></path>
            <path id="Angled-Arrow" d="M105,100 L119,107 L105,114 L105,108 L0,108 L0,106 L105,106 L105,100 Z"></path>
            <path id="Angled-Arrow" d="M105,100 L119,107 L105,114 L105,108 L79.5,108 C69.1194221,108 60.6831671,116.324636 60.5029425,126.6622 L60.5,127 L60.5,194 C60.5,205.480828 51.2869603,214.809836 39.8507743,214.99713 L39.5,215 L0,215 L0,213 L39.5,213 C49.8805779,213 58.3168329,204.675364 58.4970575,194.3378 L58.5,194 L58.5,127 C58.5,115.519172 67.7130397,106.190164 79.1492257,106.00287 L79.5,106 L105,106 L105,100 Z"></path>
            <path id="Curved-Arrow" d="M565.041279,478.418044 L579,485.5 L564.959202,492.417803 L565.041279,478.418044 Z M562.96465,484.516709 L563.028651,486.515684 C561.073196,486.578292 559.798237,486.611175 558.347409,486.629622 L558.009091,486.63363 L557.987086,484.633751 C559.567178,484.616366 560.871607,484.583721 562.96465,484.516709 Z M548.032241,484.50052 C549.58229,484.550521 551.014298,484.586704 552.351786,484.610266 L553.012762,484.621 L552.98309,486.62078 C551.666242,486.601241 550.259046,486.569206 548.737923,486.523486 L547.967759,486.49948 L548.032241,484.50052 Z"></path>
            <path id="Curved-Arrow" d="M680.041279,478.418044 L694,485.5 L679.959202,492.417803 L680.041279,478.418044 Z M677.96465,484.516709 L678.028651,486.515684 C676.073196,486.578292 674.798237,486.611175 673.347409,486.629622 L673.009091,486.63363 L672.987086,484.633751 C674.567178,484.616366 675.871607,484.583721 677.96465,484.516709 Z M663.032241,484.50052 C664.58229,484.550521 666.014298,484.586704 667.351786,484.610266 L668.012762,484.621 L667.98309,486.62078 C666.666242,486.601241 665.259046,486.569206 663.737923,486.523486 L662.967759,486.49948 L663.032241,484.50052 Z"></path>
            <path id="Curved-Arrow" d="M795.041279,478.418044 L809,485.5 L794.959202,492.417803 L795.041279,478.418044 Z M792.96465,484.516709 L793.028651,486.515684 C791.073196,486.578292 789.798237,486.611175 788.347409,486.629622 L788.009091,486.63363 L787.987086,484.633751 C789.567178,484.616366 790.871607,484.583721 792.96465,484.516709 Z M778.032241,484.50052 C779.58229,484.550521 781.014298,484.586704 782.351786,484.610266 L783.012762,484.621 L782.98309,486.62078 C781.666242,486.601241 780.259046,486.569206 778.737923,486.523486 L777.967759,486.49948 L778.032241,484.50052 Z"></path>
            <path id="Curved-Arrow" d="M910.041279,478.418044 L924,485.5 L909.959202,492.417803 L910.041279,478.418044 Z M907.96465,484.516709 L908.028651,486.515684 C906.073196,486.578292 904.798237,486.611175 903.347409,486.629622 L903.009091,486.63363 L902.987086,484.633751 C904.567178,484.616366 905.871607,484.583721 907.96465,484.516709 Z M893.032241,484.50052 C894.58229,484.550521 896.014298,484.586704 897.351786,484.610266 L898.012762,484.621 L897.98309,486.62078 C896.666242,486.601241 895.259046,486.569206 893.737923,486.523486 L892.967759,486.49948 L893.032241,484.50052 Z"></path>
            <path id="Curved-Arrow" d="M194.999904,136.986112 C195.20838,151.996451 195.187523,159.505324 194.999904,173.013888 C194.869666,182.390961 194.830664,187.298816 194.866034,194.989856 L200.860658,194.931192 L194,209 L186.861348,195.070188 L192.866098,195.008405 C192.830585,187.297266 192.869648,182.37842 193.000096,172.986112 C193.183404,159.787968 193.207303,152.332086 193.01335,137.980982 L193.000096,137.013888 L194.999904,136.986112 Z"></path>
            <path id="Curved-Arrow" d="M244,258 C291.48769,258 330.324086,265.56929 365.510386,280.264745 C380.360605,286.466895 394.533216,293.899617 409.476482,303.077574 C420.787141,310.024432 429.430754,315.855938 448.5713,329.179259 C485.112168,354.614569 502.265387,365.262485 527.16786,376.141254 C559.668099,390.339145 595.020924,398.296563 637.648776,399.757652 L638.016,399.769 L638.107895,393.788244 L652,401 L637.895332,407.78663 L637.986,401.769 L637.578925,401.756431 C594.70051,400.286587 559.09965,392.27333 526.367215,377.974003 C501.307933,367.026731 484.07356,356.328438 447.4287,330.820741 C428.319246,317.519062 419.697234,311.702131 408.429768,304.781801 C393.569909,295.655071 379.487609,288.269712 364.739614,282.110255 C330.150301,267.664131 291.997719,260.151072 245.414207,260.002255 L244,260 L244,258 Z"></path>
            <path id="Curved-Arrow" d="M637.888101,100.22842 L652,107 L638.115596,114.226571 L638.018,108.246 L637.682902,108.258209 C595.049241,109.818818 559.694447,118.33522 527.191713,133.534034 C513.322098,140.019695 499.990208,147.68782 485.844272,157.087331 C475.117943,164.214626 466.879723,170.17982 448.597481,183.801883 C429.456884,198.063505 420.813276,204.305676 409.502476,211.741842 C394.558498,221.566602 380.384902,229.523308 365.533131,236.162924 C330.692711,251.73864 292.272812,259.837157 245.422298,259.997569 L244,260 L244,258 C291.217998,258 329.784212,249.954029 364.716869,234.337076 C379.463312,227.744549 393.544627,219.839648 408.403774,210.070658 C419.671099,202.663074 428.293116,196.436495 447.402519,182.198117 C465.713378,168.554732 473.971339,162.575244 484.73741,155.421542 C498.961443,145.970137 512.378062,138.253278 526.344529,131.722328 C559.18644,116.364909 594.917058,107.779836 637.986425,106.245946 L637.888101,100.22842 Z"></path>
        </g>
        <g id="Client1" transform="translate(42.000000, 26.000000)">
            <g id="Oval">
                <use fill="black" fill-opacity="1" filter="url(#filter-2)" xlink:href="#path-1"></use>
                <use fill="#FFA69E" fill-rule="evenodd" xlink:href="#path-1"></use>
            </g>
            <text id="Client" font-family="MarkerFelt-Wide, Marker Felt" font-size="16" font-weight="bold" fill="#FFFFFF">
                <tspan x="10.684" y="35">Client</tspan>
            </text>
        </g>
        <g id="Client2" transform="translate(42.000000, 133.000000)">
            <g id="Oval">
                <use fill="black" fill-opacity="1" filter="url(#filter-4)" xlink:href="#path-3"></use>
                <use fill="#FFA69E" fill-rule="evenodd" xlink:href="#path-3"></use>
            </g>
            <text id="Client" font-family="MarkerFelt-Wide, Marker Felt" font-size="16" font-weight="bold" fill="#FFFFFF">
                <tspan x="10.684" y="37">Client</tspan>
            </text>
        </g>
        <g id="Client3" transform="translate(42.000000, 240.000000)">
            <g id="Oval">
                <use fill="black" fill-opacity="1" filter="url(#filter-6)" xlink:href="#path-5"></use>
                <use fill="#FFA69E" fill-rule="evenodd" xlink:href="#path-5"></use>
            </g>
            <text id="Client" font-family="MarkerFelt-Wide, Marker Felt" font-size="16" font-weight="bold" fill="#FFFFFF">
                <tspan x="10.684" y="36">Client</tspan>
            </text>
        </g>
        <g id="MainReactor" transform="translate(221.000000, 133.000000)">
            <g id="Rectangle">
                <use fill="black" fill-opacity="1" filter="url(#filter-8)" xlink:href="#path-7"></use>
                <use fill="#549688" fill-rule="evenodd" xlink:href="#path-7"></use>
            </g>
            <text id="Main-Reactor" font-family="MarkerFelt-Wide, Marker Felt" font-size="18" font-weight="bold" fill="#FFFFFF">
                <tspan x="20.847" y="36">Main Reactor</tspan>
            </text>
        </g>
        <g id="SubReactor1" transform="translate(754.000000, 133.000000)">
            <g id="Rectangle">
                <use fill="black" fill-opacity="1" filter="url(#filter-10)" xlink:href="#path-9"></use>
                <use fill="#177CB0" fill-rule="evenodd" xlink:href="#path-9"></use>
            </g>
            <text id="Sub-Reactor" font-family="MarkerFelt-Wide, Marker Felt" font-size="18" font-weight="bold" fill="#FFFFFF">
                <tspan x="38.872" y="37">Sub Reactor</tspan>
            </text>
        </g>
        <g id="Read1" transform="translate(566.000000, 230.000000)">
            <g id="Rectangle">
                <use fill="black" fill-opacity="1" filter="url(#filter-12)" xlink:href="#path-11"></use>
                <use fill="#FFC43D" fill-rule="evenodd" xlink:href="#path-11"></use>
            </g>
            <text id="Read" font-family="MarkerFelt-Wide, Marker Felt" font-size="16" font-weight="bold" fill="#FFFFFF">
                <tspan x="25.028" y="23">Read</tspan>
            </text>
        </g>
        <g id="Decode1" transform="translate(681.000000, 230.000000)">
            <g id="Rectangle">
                <use fill="black" fill-opacity="1" filter="url(#filter-14)" xlink:href="#path-13"></use>
                <use fill="#FFC43D" fill-rule="evenodd" xlink:href="#path-13"></use>
            </g>
            <text id="Decode" font-family="MarkerFelt-Wide, Marker Felt" font-size="16" font-weight="bold" fill="#FFFFFF">
                <tspan x="17.648" y="23">Decode</tspan>
            </text>
        </g>
        <g id="Compute1" transform="translate(796.000000, 230.000000)">
            <g id="Rectangle">
                <use fill="black" fill-opacity="1" filter="url(#filter-16)" xlink:href="#path-15"></use>
                <use fill="#FFC43D" fill-rule="evenodd" xlink:href="#path-15"></use>
            </g>
            <text id="Compute" font-family="MarkerFelt-Wide, Marker Felt" font-size="16" font-weight="bold" fill="#FFFFFF">
                <tspan x="12.032" y="23">Compute</tspan>
            </text>
        </g>
        <g id="Encode1" transform="translate(911.000000, 230.000000)">
            <g id="Rectangle">
                <use fill="black" fill-opacity="1" filter="url(#filter-18)" xlink:href="#path-17"></use>
                <use fill="#FFC43D" fill-rule="evenodd" xlink:href="#path-17"></use>
            </g>
            <text id="Encode" font-family="MarkerFelt-Wide, Marker Felt" font-size="16" font-weight="bold" fill="#FFFFFF">
                <tspan x="17.932" y="23">Encode</tspan>
            </text>
        </g>
        <g id="write-op" transform="translate(1026.000000, 230.000000)">
            <g id="Rectangle">
                <use fill="black" fill-opacity="1" filter="url(#filter-20)" xlink:href="#path-19"></use>
                <use fill="#FFC43D" fill-rule="evenodd" xlink:href="#path-19"></use>
            </g>
            <text id="Write" font-family="MarkerFelt-Wide, Marker Felt" font-size="16" font-weight="bold" fill="#FFFFFF">
                <tspan x="22.964" y="25">Write</tspan>
            </text>
        </g>
        <g id="Acceptor" transform="translate(246.000000, 265.000000)">
            <g id="Oval">
                <use fill="black" fill-opacity="1" filter="url(#filter-22)" xlink:href="#path-21"></use>
                <use fill="#5E6472" fill-rule="evenodd" xlink:href="#path-21"></use>
            </g>
            <text font-family="MarkerFelt-Wide, Marker Felt" font-size="18" font-weight="bold" fill="#FFFFFF">
                <tspan x="14.126" y="56">Acceptor</tspan>
            </text>
        </g>
        <path id="Path-2" d="M547.5,237.5 L566.5,247 L547.5,256.5 L547.5,248.5 L546,248.5 L546,245.5 L547.5,245.5 L547.5,237.5 Z M541,245.5 L541,248.5 L536,248.5 L536,245.5 L541,245.5 Z M533.5,241 L533.5,246 L530.5,246 L530.5,241 L533.5,241 Z M533.5,231 L533.5,236 L530.5,236 L530.5,231 L533.5,231 Z M533.5,221 L533.5,226 L530.5,226 L530.5,221 L533.5,221 Z M533.5,211 L533.5,216 L530.5,216 L530.5,211 L533.5,211 Z M533.5,201 L533.5,206 L530.5,206 L530.5,201 L533.5,201 Z M533.5,191 L533.5,196 L530.5,196 L530.5,191 L533.5,191 Z M533.5,181 L533.5,186 L530.5,186 L530.5,181 L533.5,181 Z M533.5,171 L533.5,176 L530.5,176 L530.5,171 L533.5,171 Z M534,161.5 L534,164.5 L533.5,164.5 L533.5,166 L530.5,166 L530.5,161.5 L534,161.5 Z M644,161.5 L644,164.5 L639,164.5 L639,161.5 L644,161.5 Z M634,161.5 L634,164.5 L629,164.5 L629,161.5 L634,161.5 Z M624,161.5 L624,164.5 L619,164.5 L619,161.5 L624,161.5 Z M614,161.5 L614,164.5 L609,164.5 L609,161.5 L614,161.5 Z M604,161.5 L604,164.5 L599,164.5 L599,161.5 L604,161.5 Z M594,161.5 L594,164.5 L589,164.5 L589,161.5 L594,161.5 Z M754,161.5 L754,164.5 L749,164.5 L749,161.5 L754,161.5 Z M574,161.5 L574,164.5 L569,164.5 L569,161.5 L574,161.5 Z M564,161.5 L564,164.5 L559,164.5 L559,161.5 L564,161.5 Z M554,161.5 L554,164.5 L549,164.5 L549,161.5 L554,161.5 Z M544,161.5 L544,164.5 L539,164.5 L539,161.5 L544,161.5 Z M654,161.5 L654,164.5 L649,164.5 L649,161.5 L654,161.5 Z M664,161.5 L664,164.5 L659,164.5 L659,161.5 L664,161.5 Z M674,161.5 L674,164.5 L669,164.5 L669,161.5 L674,161.5 Z M684,161.5 L684,164.5 L679,164.5 L679,161.5 L684,161.5 Z M694,161.5 L694,164.5 L689,164.5 L689,161.5 L694,161.5 Z M704,161.5 L704,164.5 L699,164.5 L699,161.5 L704,161.5 Z M714,161.5 L714,164.5 L709,164.5 L709,161.5 L714,161.5 Z M724,161.5 L724,164.5 L719,164.5 L719,161.5 L724,161.5 Z M734,161.5 L734,164.5 L729,164.5 L729,161.5 L734,161.5 Z M744,161.5 L744,164.5 L739,164.5 L739,161.5 L744,161.5 Z M584,161.5 L584,164.5 L579,164.5 L579,161.5 L584,161.5 Z" fill="#50616D" fill-rule="nonzero"></path>
        <path id="Path-3" d="M1116.01616,245.5 L1116.01616,248.5 L1111.01616,248.5 L1111.01616,245.5 L1116.01616,245.5 Z M1126.01616,245.5 L1126.01616,248.5 L1121.01616,248.5 L1121.01616,245.5 L1126.01616,245.5 Z M1136.01616,245.5 L1136.01616,248.5 L1131.01616,248.5 L1131.01616,245.5 L1136.01616,245.5 Z M1146.01616,245.5 L1146.01616,248.5 L1141.01616,248.5 L1141.01616,245.5 L1146.01616,245.5 Z M1151.5,240.983838 L1151.5,245.983838 L1148.5,245.983838 L1148.5,240.983838 L1151.5,240.983838 Z M1151.5,230.983838 L1151.5,235.983838 L1148.5,235.983838 L1148.5,230.983838 L1151.5,230.983838 Z M1151.5,220.983838 L1151.5,225.983838 L1148.5,225.983838 L1148.5,220.983838 L1151.5,220.983838 Z M1151.5,210.983838 L1151.5,215.983838 L1148.5,215.983838 L1148.5,210.983838 L1151.5,210.983838 Z M1151.5,200.983838 L1151.5,205.983838 L1148.5,205.983838 L1148.5,200.983838 L1151.5,200.983838 Z M1151.5,190.983838 L1151.5,195.983838 L1148.5,195.983838 L1148.5,190.983838 L1151.5,190.983838 Z M1151.5,180.983838 L1151.5,185.983838 L1148.5,185.983838 L1148.5,180.983838 L1151.5,180.983838 Z M1151.5,170.983838 L1151.5,175.983838 L1148.5,175.983838 L1148.5,170.983838 L1151.5,170.983838 Z M942.5,153.5 L942.5,161.5 L942.983838,161.5 L942.983838,164.5 L942.5,164.5 L942.5,172.5 L923.5,163 L942.5,153.5 Z M1151.5,161.5 L1151.5,165.983838 L1148.5,165.983838 L1148.5,164.5 L1147.98384,164.5 L1147.98384,161.5 L1151.5,161.5 Z M1142.98384,161.5 L1142.98384,164.5 L1137.98384,164.5 L1137.98384,161.5 L1142.98384,161.5 Z M1132.98384,161.5 L1132.98384,164.5 L1127.98384,164.5 L1127.98384,161.5 L1132.98384,161.5 Z M1122.98384,161.5 L1122.98384,164.5 L1117.98384,164.5 L1117.98384,161.5 L1122.98384,161.5 Z M1112.98384,161.5 L1112.98384,164.5 L1107.98384,164.5 L1107.98384,161.5 L1112.98384,161.5 Z M1102.98384,161.5 L1102.98384,164.5 L1097.98384,164.5 L1097.98384,161.5 L1102.98384,161.5 Z M1092.98384,161.5 L1092.98384,164.5 L1087.98384,164.5 L1087.98384,161.5 L1092.98384,161.5 Z M1082.98384,161.5 L1082.98384,164.5 L1077.98384,164.5 L1077.98384,161.5 L1082.98384,161.5 Z M1072.98384,161.5 L1072.98384,164.5 L1067.98384,164.5 L1067.98384,161.5 L1072.98384,161.5 Z M1062.98384,161.5 L1062.98384,164.5 L1057.98384,164.5 L1057.98384,161.5 L1062.98384,161.5 Z M1052.98384,161.5 L1052.98384,164.5 L1047.98384,164.5 L1047.98384,161.5 L1052.98384,161.5 Z M1042.98384,161.5 L1042.98384,164.5 L1037.98384,164.5 L1037.98384,161.5 L1042.98384,161.5 Z M1032.98384,161.5 L1032.98384,164.5 L1027.98384,164.5 L1027.98384,161.5 L1032.98384,161.5 Z M1022.98384,161.5 L1022.98384,164.5 L1017.98384,164.5 L1017.98384,161.5 L1022.98384,161.5 Z M1012.98384,161.5 L1012.98384,164.5 L1007.98384,164.5 L1007.98384,161.5 L1012.98384,161.5 Z M1002.98384,161.5 L1002.98384,164.5 L997.983838,164.5 L997.983838,161.5 L1002.98384,161.5 Z M992.983838,161.5 L992.983838,164.5 L987.983838,164.5 L987.983838,161.5 L992.983838,161.5 Z M982.983838,161.5 L982.983838,164.5 L977.983838,164.5 L977.983838,161.5 L982.983838,161.5 Z M972.983838,161.5 L972.983838,164.5 L967.983838,164.5 L967.983838,161.5 L972.983838,161.5 Z M962.983838,161.5 L962.983838,164.5 L957.983838,164.5 L957.983838,161.5 L962.983838,161.5 Z M952.983838,161.5 L952.983838,164.5 L947.983838,164.5 L947.983838,161.5 L952.983838,161.5 Z" fill="#50616D" fill-rule="nonzero"></path>
        <g id="Sub-Reactor2" transform="translate(754.000000, 427.000000)">
            <g id="Rectangle">
                <use fill="black" fill-opacity="1" filter="url(#filter-24)" xlink:href="#path-23"></use>
                <use fill="#177CB0" fill-rule="evenodd" xlink:href="#path-23"></use>
            </g>
            <text id="Sub-Reactor" font-family="MarkerFelt-Wide, Marker Felt" font-size="18" font-weight="bold" fill="#FFFFFF">
                <tspan x="38.872" y="37">Sub Reactor</tspan>
            </text>
        </g>
        <g id="Read2" transform="translate(566.000000, 524.000000)">
            <g id="Rectangle">
                <use fill="black" fill-opacity="1" filter="url(#filter-26)" xlink:href="#path-25"></use>
                <use fill="#FFC43D" fill-rule="evenodd" xlink:href="#path-25"></use>
            </g>
            <text id="Read" font-family="MarkerFelt-Wide, Marker Felt" font-size="16" font-weight="bold" fill="#FFFFFF">
                <tspan x="25.028" y="23">Read</tspan>
            </text>
        </g>
        <g id="Decode2" transform="translate(681.000000, 524.000000)">
            <g id="Rectangle">
                <use fill="black" fill-opacity="1" filter="url(#filter-28)" xlink:href="#path-27"></use>
                <use fill="#FFC43D" fill-rule="evenodd" xlink:href="#path-27"></use>
            </g>
            <text id="Decode" font-family="MarkerFelt-Wide, Marker Felt" font-size="16" font-weight="bold" fill="#FFFFFF">
                <tspan x="17.648" y="23">Decode</tspan>
            </text>
        </g>
        <g id="Compute2" transform="translate(796.000000, 524.000000)">
            <g id="Rectangle">
                <use fill="black" fill-opacity="1" filter="url(#filter-30)" xlink:href="#path-29"></use>
                <use fill="#FFC43D" fill-rule="evenodd" xlink:href="#path-29"></use>
            </g>
            <text id="Compute" font-family="MarkerFelt-Wide, Marker Felt" font-size="16" font-weight="bold" fill="#FFFFFF">
                <tspan x="12.032" y="23">Compute</tspan>
            </text>
        </g>
        <g id="Encode2" transform="translate(911.000000, 524.000000)">
            <g id="Rectangle">
                <use fill="black" fill-opacity="1" filter="url(#filter-32)" xlink:href="#path-31"></use>
                <use fill="#FFC43D" fill-rule="evenodd" xlink:href="#path-31"></use>
            </g>
            <text id="Encode" font-family="MarkerFelt-Wide, Marker Felt" font-size="16" font-weight="bold" fill="#FFFFFF">
                <tspan x="17.932" y="23">Encode</tspan>
            </text>
        </g>
        <path id="Path-2" d="M547.5,531.5 L566.5,541 L547.5,550.5 L547.5,542.5 L546,542.5 L546,539.5 L547.5,539.5 L547.5,531.5 Z M541,539.5 L541,542.5 L536,542.5 L536,539.5 L541,539.5 Z M533.5,535 L533.5,540 L530.5,540 L530.5,535 L533.5,535 Z M533.5,525 L533.5,530 L530.5,530 L530.5,525 L533.5,525 Z M533.5,515 L533.5,520 L530.5,520 L530.5,515 L533.5,515 Z M533.5,505 L533.5,510 L530.5,510 L530.5,505 L533.5,505 Z M533.5,495 L533.5,500 L530.5,500 L530.5,495 L533.5,495 Z M533.5,485 L533.5,490 L530.5,490 L530.5,485 L533.5,485 Z M533.5,475 L533.5,480 L530.5,480 L530.5,475 L533.5,475 Z M533.5,465 L533.5,470 L530.5,470 L530.5,465 L533.5,465 Z M534,455.5 L534,458.5 L533.5,458.5 L533.5,460 L530.5,460 L530.5,455.5 L534,455.5 Z M644,455.5 L644,458.5 L639,458.5 L639,455.5 L644,455.5 Z M634,455.5 L634,458.5 L629,458.5 L629,455.5 L634,455.5 Z M624,455.5 L624,458.5 L619,458.5 L619,455.5 L624,455.5 Z M614,455.5 L614,458.5 L609,458.5 L609,455.5 L614,455.5 Z M604,455.5 L604,458.5 L599,458.5 L599,455.5 L604,455.5 Z M594,455.5 L594,458.5 L589,458.5 L589,455.5 L594,455.5 Z M754,455.5 L754,458.5 L749,458.5 L749,455.5 L754,455.5 Z M574,455.5 L574,458.5 L569,458.5 L569,455.5 L574,455.5 Z M564,455.5 L564,458.5 L559,458.5 L559,455.5 L564,455.5 Z M554,455.5 L554,458.5 L549,458.5 L549,455.5 L554,455.5 Z M544,455.5 L544,458.5 L539,458.5 L539,455.5 L544,455.5 Z M654,455.5 L654,458.5 L649,458.5 L649,455.5 L654,455.5 Z M664,455.5 L664,458.5 L659,458.5 L659,455.5 L664,455.5 Z M674,455.5 L674,458.5 L669,458.5 L669,455.5 L674,455.5 Z M684,455.5 L684,458.5 L679,458.5 L679,455.5 L684,455.5 Z M694,455.5 L694,458.5 L689,458.5 L689,455.5 L694,455.5 Z M704,455.5 L704,458.5 L699,458.5 L699,455.5 L704,455.5 Z M714,455.5 L714,458.5 L709,458.5 L709,455.5 L714,455.5 Z M724,455.5 L724,458.5 L719,458.5 L719,455.5 L724,455.5 Z M734,455.5 L734,458.5 L729,458.5 L729,455.5 L734,455.5 Z M744,455.5 L744,458.5 L739,458.5 L739,455.5 L744,455.5 Z M584,455.5 L584,458.5 L579,458.5 L579,455.5 L584,455.5 Z" fill="#50616D" fill-rule="nonzero"></path>
        <path id="Path-3" d="M1116.01616,539.5 L1116.01616,542.5 L1111.01616,542.5 L1111.01616,539.5 L1116.01616,539.5 Z M1126.01616,539.5 L1126.01616,542.5 L1121.01616,542.5 L1121.01616,539.5 L1126.01616,539.5 Z M1136.01616,539.5 L1136.01616,542.5 L1131.01616,542.5 L1131.01616,539.5 L1136.01616,539.5 Z M1146.01616,539.5 L1146.01616,542.5 L1141.01616,542.5 L1141.01616,539.5 L1146.01616,539.5 Z M1151.5,534.983838 L1151.5,539.983838 L1148.5,539.983838 L1148.5,534.983838 L1151.5,534.983838 Z M1151.5,524.983838 L1151.5,529.983838 L1148.5,529.983838 L1148.5,524.983838 L1151.5,524.983838 Z M1151.5,514.983838 L1151.5,519.983838 L1148.5,519.983838 L1148.5,514.983838 L1151.5,514.983838 Z M1151.5,504.983838 L1151.5,509.983838 L1148.5,509.983838 L1148.5,504.983838 L1151.5,504.983838 Z M1151.5,494.983838 L1151.5,499.983838 L1148.5,499.983838 L1148.5,494.983838 L1151.5,494.983838 Z M1151.5,484.983838 L1151.5,489.983838 L1148.5,489.983838 L1148.5,484.983838 L1151.5,484.983838 Z M1151.5,474.983838 L1151.5,479.983838 L1148.5,479.983838 L1148.5,474.983838 L1151.5,474.983838 Z M1151.5,464.983838 L1151.5,469.983838 L1148.5,469.983838 L1148.5,464.983838 L1151.5,464.983838 Z M942.5,447.5 L942.5,455.5 L942.983838,455.5 L942.983838,458.5 L942.5,458.5 L942.5,466.5 L923.5,457 L942.5,447.5 Z M1151.5,455.5 L1151.5,459.983838 L1148.5,459.983838 L1148.5,458.5 L1147.98384,458.5 L1147.98384,455.5 L1151.5,455.5 Z M1142.98384,455.5 L1142.98384,458.5 L1137.98384,458.5 L1137.98384,455.5 L1142.98384,455.5 Z M1132.98384,455.5 L1132.98384,458.5 L1127.98384,458.5 L1127.98384,455.5 L1132.98384,455.5 Z M1122.98384,455.5 L1122.98384,458.5 L1117.98384,458.5 L1117.98384,455.5 L1122.98384,455.5 Z M1112.98384,455.5 L1112.98384,458.5 L1107.98384,458.5 L1107.98384,455.5 L1112.98384,455.5 Z M1102.98384,455.5 L1102.98384,458.5 L1097.98384,458.5 L1097.98384,455.5 L1102.98384,455.5 Z M1092.98384,455.5 L1092.98384,458.5 L1087.98384,458.5 L1087.98384,455.5 L1092.98384,455.5 Z M1082.98384,455.5 L1082.98384,458.5 L1077.98384,458.5 L1077.98384,455.5 L1082.98384,455.5 Z M1072.98384,455.5 L1072.98384,458.5 L1067.98384,458.5 L1067.98384,455.5 L1072.98384,455.5 Z M1062.98384,455.5 L1062.98384,458.5 L1057.98384,458.5 L1057.98384,455.5 L1062.98384,455.5 Z M1052.98384,455.5 L1052.98384,458.5 L1047.98384,458.5 L1047.98384,455.5 L1052.98384,455.5 Z M1042.98384,455.5 L1042.98384,458.5 L1037.98384,458.5 L1037.98384,455.5 L1042.98384,455.5 Z M1032.98384,455.5 L1032.98384,458.5 L1027.98384,458.5 L1027.98384,455.5 L1032.98384,455.5 Z M1022.98384,455.5 L1022.98384,458.5 L1017.98384,458.5 L1017.98384,455.5 L1022.98384,455.5 Z M1012.98384,455.5 L1012.98384,458.5 L1007.98384,458.5 L1007.98384,455.5 L1012.98384,455.5 Z M1002.98384,455.5 L1002.98384,458.5 L997.983838,458.5 L997.983838,455.5 L1002.98384,455.5 Z M992.983838,455.5 L992.983838,458.5 L987.983838,458.5 L987.983838,455.5 L992.983838,455.5 Z M982.983838,455.5 L982.983838,458.5 L977.983838,458.5 L977.983838,455.5 L982.983838,455.5 Z M972.983838,455.5 L972.983838,458.5 L967.983838,458.5 L967.983838,455.5 L972.983838,455.5 Z M962.983838,455.5 L962.983838,458.5 L957.983838,458.5 L957.983838,455.5 L962.983838,455.5 Z M952.983838,455.5 L952.983838,458.5 L947.983838,458.5 L947.983838,455.5 L952.983838,455.5 Z" fill="#50616D" fill-rule="nonzero"></path>
        <g id="Write2" transform="translate(1026.000000, 524.000000)">
            <g id="Rectangle">
                <use fill="black" fill-opacity="1" filter="url(#filter-34)" xlink:href="#path-33"></use>
                <use fill="#FFC43D" fill-rule="evenodd" xlink:href="#path-33"></use>
            </g>
            <text id="Write" font-family="MarkerFelt-Wide, Marker Felt" font-size="16" font-weight="bold" fill="#FFFFFF">
                <tspan x="22.964" y="25">Write</tspan>
            </text>
        </g>
    </g>
</svg>